<?xml version="1.0" encoding="UTF-8" standalone="no"?>
<!-- Created with Inkscape (http://www.inkscape.org/) -->
<svg
   xmlns:dc="http://purl.org/dc/elements/1.1/"
   xmlns:cc="http://creativecommons.org/ns#"
   xmlns:rdf="http://www.w3.org/1999/02/22-rdf-syntax-ns#"
   xmlns:svg="http://www.w3.org/2000/svg"
   xmlns="http://www.w3.org/2000/svg"
   xmlns:sodipodi="http://sodipodi.sourceforge.net/DTD/sodipodi-0.dtd"
   xmlns:inkscape="http://www.inkscape.org/namespaces/inkscape"
   id="svg2"
   sodipodi:version="0.32"
   inkscape:version="0.46"
   width="75"
   height="128"
   version="1.0"
   sodipodi:docname="bulletorig.svg"
   inkscape:export-filename="/home/duncan/programming/coffeeworlds/data/bullet0.png"
   inkscape:export-xdpi="90"
   inkscape:export-ydpi="90"
   inkscape:output_extension="org.inkscape.output.svg.inkscape">
  <metadata
     id="metadata7">
    <rdf:RDF>
      <cc:Work
         rdf:about="">
        <dc:format>image/svg+xml</dc:format>
        <dc:type
           rdf:resource="http://purl.org/dc/dcmitype/StillImage" />
      </cc:Work>
    </rdf:RDF>
  </metadata>
  <defs
     id="defs5">
    <inkscape:perspective
       sodipodi:type="inkscape:persp3d"
       inkscape:vp_x="0 : 526.18109 : 1"
       inkscape:vp_y="0 : 1000 : 0"
       inkscape:vp_z="744.09448 : 526.18109 : 1"
       inkscape:persp3d-origin="372.04724 : 350.78739 : 1"
       id="perspective9" />
    <inkscape:perspective
       id="perspective2391"
       inkscape:persp3d-origin="372.04724 : 350.78739 : 1"
       inkscape:vp_z="744.09448 : 526.18109 : 1"
       inkscape:vp_y="0 : 1000 : 0"
       inkscape:vp_x="0 : 526.18109 : 1"
       sodipodi:type="inkscape:persp3d" />
  </defs>
  <sodipodi:namedview
     inkscape:window-height="798"
     inkscape:window-width="795"
     inkscape:pageshadow="2"
     inkscape:pageopacity="0.0"
     guidetolerance="10.0"
     gridtolerance="10.0"
     objecttolerance="10.0"
     borderopacity="1.0"
     bordercolor="#666666"
     pagecolor="#ffffff"
     id="base"
     showgrid="false"
     inkscape:zoom="4.6796875"
     inkscape:cx="37.5"
     inkscape:cy="64"
     inkscape:window-x="291"
     inkscape:window-y="20"
     inkscape:current-layer="svg2" />
  <rect
     style="opacity:0.96640003;fill:#ffffff;fill-opacity:1;stroke:none;stroke-width:2.5;stroke-miterlimit:4;stroke-dasharray:none;stroke-opacity:1"
     id="rect2403"
     width="55.131886"
     height="95.305511"
     x="6.6243739"
     y="7.9065108" />
  <path
     sodipodi:nodetypes="cssssssccsssccccsccccccc"
     id="path2401"
     d="M 17.040466,100.27978 C 13.674436,97.81848 13.360319,94.019234 13.974612,63.198209 C 14.590106,32.317041 15.106776,28.25485 19.105149,22.860698 C 21.550514,19.56169 26.139514,15.593621 29.302927,14.042768 C 34.304799,11.590615 36.082483,11.74831 42.939675,15.252459 C 56.172445,22.014646 58.263537,28.971982 58.267345,66.249612 C 58.270392,96.07542 57.94747,98.790515 54.155716,100.8198 C 48.257223,103.97658 21.565015,103.58821 17.040466,100.27978 z M 55.730425,68.983708 C 56.458516,36.85653 54.472504,26.649808 46.231871,20.167725 C 35.548547,11.764221 23.626398,16.489672 17.991834,31.360918 C 15.494326,37.95257 14.825315,95.033313 17.21753,97.425529 C 18.03967,98.24767 26.894957,98.646557 36.895944,98.311943 L 55.079557,97.703556 L 55.730425,68.983708 z M 25.415859,77.625725 C 22.282439,74.163332 21.803921,70.253804 22.426895,53.205614 C 23.119303,34.257288 23.565184,32.515937 29.133731,27.012578 L 35.09885,21.117293 L 41.366259,28.064895 C 47.368401,34.718437 47.63367,35.859879 47.63367,55.033381 L 47.63367,75.054267 L 40.924633,78.401176 C 32.236542,82.735367 29.935919,82.620334 25.415859,77.625725 z"
     style="fill:#9e9fa0" />
  <path
     id="path2399"
     d="M 17.21753,97.425529 C 14.825315,95.033313 15.494326,37.95257 17.991834,31.360918 C 23.626398,16.489672 35.548547,11.764221 46.231871,20.167725 C 54.472504,26.649808 56.458516,36.85653 55.730425,68.983708 L 55.079557,97.703556 L 36.895944,98.311943 C 26.894957,98.646557 18.03967,98.24767 17.21753,97.425529 z M 40.924633,78.401176 L 47.63367,75.054267 L 47.63367,55.033381 C 47.63367,35.859879 47.368401,34.718437 41.366259,28.064895 L 35.09885,21.117293 L 29.133731,27.012578 C 23.565184,32.515937 23.119303,34.257288 22.426895,53.205614 C 21.803921,70.253804 22.282439,74.163332 25.415859,77.625725 C 29.935919,82.620334 32.236542,82.735367 40.924633,78.401176 z"
     style="fill:#474849" />
</svg>
