<?xml version="1.0" encoding="UTF-8" standalone="no"?>
<!-- Created with Inkscape (http://www.inkscape.org/) -->
<svg
   xmlns:dc="http://purl.org/dc/elements/1.1/"
   xmlns:cc="http://creativecommons.org/ns#"
   xmlns:rdf="http://www.w3.org/1999/02/22-rdf-syntax-ns#"
   xmlns:svg="http://www.w3.org/2000/svg"
   xmlns="http://www.w3.org/2000/svg"
   xmlns:sodipodi="http://sodipodi.sourceforge.net/DTD/sodipodi-0.dtd"
   xmlns:inkscape="http://www.inkscape.org/namespaces/inkscape"
   id="svg2"
   sodipodi:version="0.32"
   inkscape:version="0.46"
   width="210"
   height="327"
   version="1.0"
   sodipodi:docname="gun0orig.svg"
   inkscape:output_extension="org.inkscape.output.svg.inkscape">
  <metadata
     id="metadata7">
    <rdf:RDF>
      <cc:Work
         rdf:about="">
        <dc:format>image/svg+xml</dc:format>
        <dc:type
           rdf:resource="http://purl.org/dc/dcmitype/StillImage" />
      </cc:Work>
    </rdf:RDF>
  </metadata>
  <defs
     id="defs5">
    <inkscape:perspective
       sodipodi:type="inkscape:persp3d"
       inkscape:vp_x="0 : 526.18109 : 1"
       inkscape:vp_y="0 : 1000 : 0"
       inkscape:vp_z="744.09448 : 526.18109 : 1"
       inkscape:persp3d-origin="372.04724 : 350.78739 : 1"
       id="perspective9" />
  </defs>
  <sodipodi:namedview
     inkscape:window-height="798"
     inkscape:window-width="820"
     inkscape:pageshadow="2"
     inkscape:pageopacity="0.0"
     guidetolerance="10.0"
     gridtolerance="10.0"
     objecttolerance="10.0"
     borderopacity="1.0"
     bordercolor="#666666"
     pagecolor="#ffffff"
     id="base"
     showgrid="false"
     inkscape:zoom="5.1811249"
     inkscape:cx="118.33527"
     inkscape:cy="263.10079"
     inkscape:window-x="0"
     inkscape:window-y="20"
     inkscape:current-layer="svg2" />
  <path
     id="path2392"
     d="M 113.60612,109.40922 C 108.91816,106.02218 107.96891,105.85024 107.96891,108.38817 C 107.96891,111.66488 106.42313,111.54201 100.39485,107.78616 L 94.512793,104.1214 L 92.744934,106.28324 C 91.772612,107.47224 90.685638,108.44507 90.329437,108.44507 C 89.973235,108.44507 87.893491,107.15302 85.707784,105.57385 L 81.733769,102.70263 L 81.733769,80.053522 C 81.733769,58.881061 81.850283,57.149743 83.520877,53.498288 C 84.972668,50.325073 85.245541,48.333174 84.975183,42.882179 C 84.748067,38.303046 84.219866,35.783361 83.311892,34.94776 C 78.99847,30.978136 78.080549,25.238763 81.031772,20.691119 C 82.446182,18.511607 83.322081,17.990241 84.840098,18.424302 C 86.692317,18.953921 86.811537,18.717482 86.811537,14.514542 C 86.811537,11.51849 87.212447,9.8658083 88.025457,9.5103835 C 89.255028,8.97284 99.041973,15.841852 100.98698,18.607472 C 101.56881,19.434782 102.04485,22.353597 102.04485,25.093725 C 102.04485,30.063031 102.05675,30.084782 106.69947,33.596656 L 111.35409,37.117545 L 111.38407,52.293079 C 111.40648,63.629826 111.72001,68.078354 112.62353,69.879004 C 113.28873,71.204712 113.84649,74.781396 113.86298,77.827209 C 113.89207,83.198498 113.99858,83.452185 117.40513,86.263536 C 119.33681,87.857703 121.75321,89.162036 122.77488,89.162036 C 123.79655,89.162036 125.26275,89.955465 126.03307,90.925219 C 128.5961,94.151723 127.33459,108.36462 124.24271,111.09649 C 121.95488,113.11794 117.83469,112.46436 113.60612,109.40922 z"
     style="fill:#ffffff;fill-opacity:1"
     sodipodi:nodetypes="cscccscccssssssssscccssssssc" />
  <path
     id="path2388"
     d="M 116.66105,113 C 111.25882,109.57401 111,109.49983 111,111.37756 C 111,112.13521 110.33678,113.30553 109.52619,113.97827 C 108.32762,114.97299 106.82004,114.51226 101.45376,111.51127 C 95.610509,108.24353 94.663114,107.98565 93.177575,109.25845 C 89.814489,112.13993 88.574813,112.26904 91.3361,109.45024 L 94.172199,106.55507 L 101.76198,109.27479 C 108.85051,113.15136 109.03496,113.70943 109.03496,110.3137 C 109.03496,107.68141 111.50768,107.61848 117.04707,111.13146 C 124.75824,116.02174 128.81008,115.47226 130.87197,108.66224 L 132.46245,105.35524 L 132.4936,109 C 131.44882,116.31899 124.61643,118.04515 116.66105,113 z M 114.68114,107.95534 C 106.95199,102.10517 108.04716,102.14179 108.04716,106.36477 C 108.04716,108.13883 105.62567,109.19709 104.88648,109.15193 C 104.19898,109.10993 98.631135,106.97243 93.681135,104.40193 L 84.271703,99.455342 L 83.86227,69.136477 L 84.40818,39.363523 L 87.594158,38.40818 C 91.01622,38.40818 90.741671,37.76072 86.665398,34.992389 C 84.634593,33.613203 81.645588,32.612969 80.523581,30.767976 C 78.594655,27.596112 76.52944,25.127003 78.144894,23.341947 C 79.084562,22.303626 82.384424,19.952838 82.975835,19.952838 C 84.793667,19.952838 104.26698,32.289471 110.56886,37.536779 C 111.4356,38.258478 112.91068,43.729217 112.91068,51.675904 C 112.91068,62.46981 111.97548,66.002504 110.09182,66.002504 C 108.99182,66.002504 107.76582,65.882617 107.70099,66.570117 C 107.19768,71.907476 109.62791,73.351615 110.05601,78.75 C 110.51738,84.567913 107.44436,83.635225 109.70869,83.635225 C 111.10079,83.635225 115.04813,85.395924 117.84211,87.751842 C 120.52725,90.015981 123.20969,92.299623 124.97074,92.659796 C 129.38466,93.56254 131.62738,97.196236 130.79293,103.87494 C 129.5253,114.02071 124.32341,115.25355 114.68114,107.95534 z M 103,103.68709 C 103,102.96499 101.62925,101.06092 99.95389,99.455824 C 95.952791,95.622528 96.138416,91.163421 100.38338,89.13846 L 103.26677,87.76301 L 102.63219,65.131505 C 101.80713,35.706717 101.77887,35.550465 96.631287,31.954725 C 94.359079,30.367519 90.655962,27.703394 88.402139,26.034448 C 86.148315,24.365502 84.010815,23 83.652139,23 C 83.293462,23 83.014224,24.9125 83.031608,27.25 C 83.060978,31.198899 83.37979,31.692104 87.531608,34.211524 C 90.554307,36.045767 92,37.605725 92,39.033089 C 92,40.746242 91.482737,41.082646 89.25,40.821566 L 86.5,40.5 L 86.5,69 L 86.5,97.5 L 94,101.18626 C 102.49957,105.3638 103,105.50285 103,103.68709 z M 103,94 C 103,93.45 102.55,93 102,93 C 101.45,93 101,93.45 101,94 C 101,94.55 101.45,95 102,95 C 102.55,95 103,94.55 103,94 z M 83,108.7716 C 81.075,107.56451 79.169391,106.10959 78.765313,105.53845 C 78.361235,104.9673 78.0267,93.925 78.021902,81 C 78.013816,59.216977 78.158341,57.280811 80,54.5 C 81.092752,52.85 81.975475,51.95 81.961607,52.5 C 81.94774,53.05 82.771519,55.290297 81.964011,56.357919 C 80.768457,57.938582 79.820285,61.518131 79.820285,80.923642 L 79.965041,104.56153 L 83.695781,108.02202 C 86.27846,109.65991 87.96596,110.99242 87.445781,110.98315 C 86.925601,110.97389 84.925,109.97869 83,108.7716 z M 133.29966,100 C 133.29966,96.975 133.48713,95.7375 133.71625,97.25 C 133.94538,98.7625 133.94538,101.2375 133.71625,102.75 C 133.48713,104.2625 133.29966,103.025 133.29966,100 z M 131.02006,92.524166 C 130.23131,91.573782 130.15544,91 130.81854,91 C 132.02709,91 133.43613,92.8972 132.74264,93.590697 C 132.49094,93.842396 131.71578,93.362457 131.02006,92.524166 z M 120.13675,88.476249 C 117.23996,86.377826 116.12433,84.309882 116.21939,82.743728 L 117.27236,80.5 L 117.70305,82.729519 C 118.18021,85.199629 122.61424,88.752425 126.79136,90.011592 C 129.00168,90.67788 129.11366,91.857201 127.40004,91.92734 C 126.24506,91.974614 122.41927,90.129698 120.13675,88.476249 z M 117.1144,76.5 C 117.0125,74.85 115.27273,72.857521 114.48671,71.482521 C 113.41914,69.614995 113.09687,64.470753 113.0704,52.715936 L 113.13146,37.462646 L 108.98671,34.960327 C 106.78671,33.504436 106,31.542469 106,31.308097 C 106,30.727425 107.87559,31.833312 111.75,34.698422 L 115,37.101783 L 115,52.600551 C 115,64.686378 115.34353,68.763627 116.56002,71.116057 C 117.41802,72.775262 117.93545,75.340415 117.70985,76.816397 C 117.30726,79.450316 117.29623,79.444458 117.1144,76.5 z M 82.32814,44.5 C 82.332577,40.65 82.513323,39.197537 82.729798,41.272304 C 82.946274,43.347072 82.942644,46.497072 82.721732,48.272304 C 82.50082,50.047537 82.323704,48.35 82.32814,44.5 z M 78.073652,32.942976 C 74.434123,27.918752 74.168476,24.081502 77.12861,19.291905 C 78.861356,16.488262 79.698233,15.958429 81.62861,16.442923 C 83.779296,16.982711 84,16.7182 84,13.600839 C 84,9.1452717 84.861948,7 86.652149,7 C 88.691095,7 103,16.822016 103,18.221603 C 103,18.889427 101.35943,19.443587 100.6402,18.545914 C 98.341948,15.677462 88.273298,9.325091 86.820411,9.882616 C 85.859741,10.25126 85.651403,10.566075 85.651403,13.673527 C 85.651403,18.032734 84.907379,19.049996 82.718757,18.500687 C 80.925036,18.050492 80.903349,18.205219 79.232051,20.465771 C 75.756673,25.166471 76.635195,29.968902 81.69184,34.064139 C 82.533722,34.745956 82.082492,36.250841 81.750651,36.582682 C 81.41881,36.914523 79.764161,35.276655 78.073652,32.942976 z M 103.45888,29.933469 C 103.09635,29.346877 103.0142,28.652469 103.27633,28.390341 C 103.53845,28.128212 104.01939,28.608151 104.34508,29.456872 C 105.02126,31.218979 104.44493,31.52893 103.45888,29.933469 z"
     style="fill:#000000;fill-opacity:1"
     sodipodi:nodetypes="csssscccsscccccsscccccsssssssssssssccscccsssssscccccccsssccssssscccsccssccsscccccssccscccscccssccssccssssssssssssccssc" />
  <path
     id="path2386"
     d="M 116.66105,112 C 111.12166,108.48702 110,108.30869 110,110.94098 C 110,114.33952 108.17348,114.21209 101.05033,110.31659 L 94.09997,106.51557 L 92.01103,108.75779 C 90.862113,109.991 89.577721,111 89.156826,111 C 88.73593,111 86.27846,109.65991 83.695781,108.02202 L 79,105.04405 L 79,81.552818 C 79,59.59314 79.137675,57.797452 81.111685,54.010231 C 82.827153,50.719033 83.149585,48.653068 82.830124,42.999407 C 82.561759,38.250011 81.937626,35.636643 80.864743,34.76997 C 75.767912,30.652755 74.683277,24.699978 78.170505,19.98325 C 79.841803,17.722698 80.876784,17.181955 82.670505,17.63215 C 84.859127,18.181459 85,17.93623 85,13.577023 C 85,10.469571 85.473724,8.7554455 86.434394,8.3868018 C 87.887281,7.8292768 99.451746,14.953681 101.75,17.822133 C 102.4375,18.680203 103,21.70754 103,24.54955 C 103,29.703623 103.01407,29.72618 108.5,33.368635 L 114,37.020429 L 114.03544,52.760215 C 114.06191,64.518477 114.43238,69.132398 115.5,71 C 116.28602,72.375 116.94508,76.084677 116.96456,79.243728 C 116.99893,84.814734 117.1248,85.077857 121.15004,87.993728 C 123.43256,89.647177 126.28782,91 127.49505,91 C 128.70229,91 130.43477,91.822933 131.34501,92.828741 C 134.37353,96.175214 132.88291,110.91656 129.22948,113.75 C 126.52613,115.84661 121.65762,115.16873 116.66105,112 z M 127.35654,110.5006 C 129.2355,108.62164 130.63215,98.225721 129.29122,96.099903 C 128.75107,95.24358 126.86826,94.248265 125.10722,93.888093 C 123.34617,93.52792 119.70839,91.380756 117.02325,89.116617 C 114.22927,86.760699 111.10079,85 109.70869,85 C 107.44436,85 107.24192,84.567913 106.78055,78.75 C 106.35245,73.351615 106.37882,69.587359 106.88213,64.25 C 106.94696,63.5625 107.9,63 109,63 C 110.88366,63 111,62.333333 111,51.539427 C 111,43.59274 110.61674,39.75973 109.75,39.038031 C 103.44812,33.790723 85.203099,22 83.385267,22 C 82.793856,22 81.541156,22.849536 80.601488,23.887857 C 78.986034,25.672913 79.004087,25.958382 80.933013,29.130246 C 82.05502,30.975239 85.589935,33.613203 87.62074,34.992389 C 91.697013,37.76072 92.108039,39.636477 88.685977,39.636477 L 85.5,39.5 L 85.5,69 L 85.5,98.5 L 94.5,103.17363 C 99.45,105.74413 104.0625,107.88163 104.75,107.92363 C 105.48919,107.96879 106,106.77406 106,105 C 106,100.77702 107.77085,101.14983 115.5,107 C 122.43887,112.25201 124.88339,112.97375 127.35654,110.5006 z"
     style="fill:#000000;fill-opacity:1"
     sodipodi:nodetypes="cscccscccssssssssscccssssssccssssssssssssscccccsssc" />
</svg>
