<?xml version="1.0" encoding="UTF-8" standalone="no"?>
<!-- Created with Inkscape (http://www.inkscape.org/) -->
<svg
   xmlns:dc="http://purl.org/dc/elements/1.1/"
   xmlns:cc="http://creativecommons.org/ns#"
   xmlns:rdf="http://www.w3.org/1999/02/22-rdf-syntax-ns#"
   xmlns:svg="http://www.w3.org/2000/svg"
   xmlns="http://www.w3.org/2000/svg"
   xmlns:sodipodi="http://sodipodi.sourceforge.net/DTD/sodipodi-0.dtd"
   xmlns:inkscape="http://www.inkscape.org/namespaces/inkscape"
   id="svg2"
   sodipodi:version="0.32"
   inkscape:version="0.46"
   width="210"
   height="327"
   version="1.0"
   sodipodi:docname="gun.svg"
   inkscape:output_extension="org.inkscape.output.svg.inkscape"
   inkscape:export-filename="/home/duncan/programming/coffeeworlds/data/gun2.png"
   inkscape:export-xdpi="90"
   inkscape:export-ydpi="90">
  <metadata
     id="metadata7">
    <rdf:RDF>
      <cc:Work
         rdf:about="">
        <dc:format>image/svg+xml</dc:format>
        <dc:type
           rdf:resource="http://purl.org/dc/dcmitype/StillImage" />
      </cc:Work>
    </rdf:RDF>
  </metadata>
  <defs
     id="defs5">
    <inkscape:perspective
       sodipodi:type="inkscape:persp3d"
       inkscape:vp_x="0 : 526.18109 : 1"
       inkscape:vp_y="0 : 1000 : 0"
       inkscape:vp_z="744.09448 : 526.18109 : 1"
       inkscape:persp3d-origin="372.04724 : 350.78739 : 1"
       id="perspective9" />
  </defs>
  <sodipodi:namedview
     inkscape:window-height="798"
     inkscape:window-width="940"
     inkscape:pageshadow="2"
     inkscape:pageopacity="0.0"
     guidetolerance="10.0"
     gridtolerance="10.0"
     objecttolerance="10.0"
     borderopacity="1.0"
     bordercolor="#666666"
     pagecolor="#ffffff"
     id="base"
     showgrid="false"
     inkscape:zoom="1.2952812"
     inkscape:cx="74.195486"
     inkscape:cy="182.2199"
     inkscape:window-x="56"
     inkscape:window-y="20"
     inkscape:current-layer="svg2" />
  <rect
     style="opacity:0.96640002999999997;fill:#ffffff;fill-opacity:1;stroke:#000000;stroke-width:1.97188710999999994;stroke-miterlimit:4;stroke-dasharray:none;stroke-opacity:1"
     id="rect3182"
     width="37.377026"
     height="125.81441"
     x="85.170845"
     y="20.753471" />
  <path
     id="path2388"
     d="M 95.5,201.07129 C 90.751526,199.92534 87.980259,198.07828 86.952132,195.3741 C 85.718556,192.12955 85.745105,175.6068 87.015904,155.68593 C 87.804909,143.31758 88.456953,139.02462 90.00845,135.98344 C 83.845192,126.33116 107.9796,140.10233 105.54198,143.39228 C 105.89713,149.78321 105.84647,153.81625 116.79831,170.47404 C 121.48977,177.60976 126.43791,185.58693 127.79417,188.20108 C 130.16467,192.7701 130.19401,193.05496 128.5521,195.56083 C 125.54666,200.14772 120.04489,205.51471 108.77295,205.42409 C 103.27295,205.37987 97.15,201.46948 95.5,201.07129 z M 85.453726,21.227045 C 86.145214,20.127045 89.411645,17.212192 92.37885,15.750429 C 100.32466,11.83601 117.71201,7.7039786 119.05867,8.5362624 C 119.85562,9.0287993 121.93143,10.769353 121.48955,14.605985 C 121.13348,17.697568 120.48819,21.534892 120.38918,22.466148 C 120.22727,23.989001 116.93844,23.86695 102.33929,23.693193 C 86.376642,23.503207 84.217348,23.193841 85.453726,21.227045 z"
     style="fill:#000000;fill-opacity:1"
     sodipodi:nodetypes="cssccssssccsssssc" />
  <path
     id="path2386"
     d="M 93.45863,206.17645 C 88.880727,204.03343 84.314467,199.10112 83.349684,195.25712 C 82.992331,193.83331 83.046861,181.38049 83.470861,167.58419 C 84.474026,134.94276 84.50633,136.36472 82.617077,130.00238 C 81.621278,126.64888 80.757533,118.84871 80.402395,110.00238 C 80.082183,102.02607 79.348449,93.954775 78.771873,92.066166 C 78.195298,90.177557 77.743248,85.486556 77.767317,81.641719 C 77.803294,75.894794 78.164494,74.370802 79.797579,73.075553 C 83.498138,70.140527 85,65.549437 85,57.172105 C 85,51.464647 84.593698,48.907689 83.549011,48.040675 C 82.750967,47.378358 81.791834,44.735758 81.417604,42.168231 C 81.043374,39.600704 79.896319,35.830427 78.868593,33.789838 C 75.60546,27.310765 76.274858,24.607588 82.25,20.134957 C 90.601354,13.883638 120.32785,1.9278515 122.39067,3.9906661 C 123.82884,5.4288435 124.97266,14.495368 125.64816,29.811266 C 126.13523,40.855011 125.93782,44.068095 124.48929,48.673369 C 122.51817,54.940055 122.88783,63.30988 125.30579,67.160873 C 126.1396,68.488848 127.05266,73.390498 127.418,78.5 C 127.77194,83.45 129.65956,96.647585 131.6127,107.82797 L 135.16387,128.15593 L 131.08194,131.92436 C 127.43912,135.28739 127,136.18965 127,140.31159 C 127,144.05191 126.4097,145.60272 123.89641,148.4652 C 120.46247,152.37625 117.64734,152.90323 113.00709,150.50367 C 110.99096,149.46109 109.90925,149.33782 109.43994,150.09719 C 108.46028,151.6823 119.7398,167.81408 123.01031,169.50533 C 129.07738,172.64273 136.94128,186.44883 136.97804,194.02749 C 137.00374,199.3251 135.41027,201.96242 130.25075,205.16169 C 126.84864,207.27123 125.15219,207.51441 112,207.77786 C 99.473491,208.02877 96.949958,207.81081 93.45863,206.17645 z M 122.67204,200.06183 C 124.96667,199.02 127.61269,196.99455 128.5521,195.56083 C 130.19401,193.05496 130.16467,192.7701 127.79417,188.20108 C 126.43791,185.58693 121.48977,177.60976 116.79831,170.47404 C 112.10686,163.33832 107.4756,155.94883 106.50662,154.05296 C 104.47914,150.08603 103.56782,140 105.23687,140 C 105.83163,140 108.69645,141.79555 111.60312,143.99011 C 117.2418,148.24735 118.9017,148.32516 121.44001,144.45122 C 122.76942,142.42228 122.98272,137.81566 122.88312,113.28518 C 122.81883,97.453332 122.48133,81.575 122.13312,78 C 121.55169,72.030725 121.29587,71.471764 119,71.154182 C 114.38535,70.51585 114,69.463528 114,57.5 C 114,45.536472 114.38535,44.48415 119,43.845818 C 121.46065,43.505444 121.5,43.355037 121.5,34.291175 C 121.5,26.559908 121.20975,24.870411 119.691,23.76145 C 118.18877,22.664545 118.06159,21.968217 118.941,19.655176 C 120.4359,15.723303 120.28263,9.0456857 118.6834,8.4320048 C 117.95928,8.1541308 113.38045,9.3337873 108.50824,11.053464 C 86.732879,18.739213 85.009824,20.394061 85.003738,33.627555 C 84.999709,42.38705 85.570226,43.523145 90.656073,44.88331 C 94.043265,45.789185 94.80064,48.094748 94.80064,57.5 C 94.80064,67.151671 94.059626,69.264647 90.296309,70.343952 C 88.408578,70.885346 86.943994,72.08407 86.598846,73.370228 C 86.284501,74.541603 86.021165,87.525944 86.013655,102.22432 L 86,128.94864 L 89.005715,130.50296 L 92.01143,132.05727 L 90.018075,135.96457 C 88.455118,139.02822 87.8069,143.28638 87.015904,155.68593 C 85.745105,175.6068 85.718556,192.12955 86.952132,195.3741 C 88.757815,200.1234 94.18381,201.76058 108.5,201.87568 C 116.3051,201.93843 119.41572,201.54031 122.67204,200.06183 z"
     style="fill:#000000;fill-opacity:1" />
</svg>
