<?xml version="1.0" encoding="UTF-8" standalone="no"?>
<!-- Created with Inkscape (http://www.inkscape.org/) -->
<svg
   xmlns:dc="http://purl.org/dc/elements/1.1/"
   xmlns:cc="http://creativecommons.org/ns#"
   xmlns:rdf="http://www.w3.org/1999/02/22-rdf-syntax-ns#"
   xmlns:svg="http://www.w3.org/2000/svg"
   xmlns="http://www.w3.org/2000/svg"
   xmlns:sodipodi="http://sodipodi.sourceforge.net/DTD/sodipodi-0.dtd"
   xmlns:inkscape="http://www.inkscape.org/namespaces/inkscape"
   id="svg2"
   sodipodi:version="0.32"
   inkscape:version="0.46"
   width="210"
   height="327"
   version="1.0"
   sodipodi:docname="gun2orig.svg"
   inkscape:output_extension="org.inkscape.output.svg.inkscape">
  <metadata
     id="metadata7">
    <rdf:RDF>
      <cc:Work
         rdf:about="">
        <dc:format>image/svg+xml</dc:format>
        <dc:type
           rdf:resource="http://purl.org/dc/dcmitype/StillImage" />
      </cc:Work>
    </rdf:RDF>
  </metadata>
  <defs
     id="defs5">
    <inkscape:perspective
       sodipodi:type="inkscape:persp3d"
       inkscape:vp_x="0 : 526.18109 : 1"
       inkscape:vp_y="0 : 1000 : 0"
       inkscape:vp_z="744.09448 : 526.18109 : 1"
       inkscape:persp3d-origin="372.04724 : 350.78739 : 1"
       id="perspective9" />
  </defs>
  <sodipodi:namedview
     inkscape:window-height="798"
     inkscape:window-width="675"
     inkscape:pageshadow="2"
     inkscape:pageopacity="0.0"
     guidetolerance="10.0"
     gridtolerance="10.0"
     objecttolerance="10.0"
     borderopacity="1.0"
     bordercolor="#666666"
     pagecolor="#ffffff"
     id="base"
     showgrid="false"
     inkscape:zoom="2"
     inkscape:cx="113.55812"
     inkscape:cy="212.59823"
     inkscape:window-x="36"
     inkscape:window-y="23"
     inkscape:current-layer="svg2" />
  <path
     id="path2397"
     d="M 96.846011,142.79503 L 88.839516,142.79503 C 79.80436,142.79503 78.788081,142.21358 78.788081,137.04429 C 78.788081,133.90823 78.37847,133.2906 74.527803,130.62046 L 70.267524,127.66629 L 70.267524,122.51591 C 70.267524,119.09731 70.697269,116.96769 71.545608,116.18232 C 72.605596,115.20101 72.823692,111.67545 72.823692,95.521755 L 72.823692,76.0444 L 75.805886,72.997363 L 78.788081,69.950326 L 78.788081,60.721056 C 78.788081,53.394046 78.524653,51.379026 77.509997,50.944701 C 75.663352,50.154243 75.663352,36.527897 77.509997,35.737438 C 78.395891,35.35823 78.788081,33.815881 78.788081,30.711172 C 78.788081,27.117953 79.209414,25.82334 80.918217,24.165967 C 82.105693,23.014237 83.048357,21.070457 83.048357,19.773616 C 83.048357,18.494136 83.421873,17.189786 83.878387,16.875061 C 84.33491,16.560336 89.798717,14.595578 96.020181,12.508932 C 107.24831,8.743081 107.34059,8.72933 108.50094,10.648932 C 109.1439,11.712578 110.35807,12.582832 111.19912,12.582832 C 112.30397,12.582832 113.18,14.099369 114.35611,18.047943 C 115.8029,22.905282 116.26088,23.542037 118.47438,23.773674 C 125.28274,24.486152 125.0432,24.106673 124.63889,33.539547 L 124.27426,42.046907 L 126.4538,42.061461 C 127.65255,42.069466 129.14416,42.437229 129.76849,42.878713 C 131.11703,43.832291 137.17501,74.54299 136.43748,76.68689 C 136.05002,77.813246 134.61398,78.164159 130.3921,78.164159 L 124.8549,78.164159 L 124.61397,88.755398 C 124.39898,98.20725 124.18974,99.45979 122.66895,100.39846 C 121.73169,100.97697 120.80931,101.55249 120.61922,101.6774 C 120.42913,101.80231 120.04012,103.51313 119.75474,105.47922 L 96.846011,142.79503 z"
     style="fill:#ffffff;fill-opacity:1"
     sodipodi:nodetypes="ccscccscccccssssssssssscccsscccsscc" />
  <path
     id="path2388"
     d="M 89.2,203.8 C 87.8676,202.4676 85.784749,198.45368 86.743147,190.47358 C 87.703597,182.47638 91.498251,177.65594 111,177.76653 C 130.92318,177.87951 136.10679,182.44469 137.08656,188.8254 C 138.24432,196.36536 136.37279,203.21816 134.87468,204.46148 C 133.82201,205.33512 129.93341,206.98733 121.63586,206.15781 C 113.74703,205.36915 108.72116,203.99357 101.8924,204.75502 C 90.186927,206.06026 90.649459,205.24946 89.2,203.8 z M 118.08932,157.6849 C 110.94188,153.6724 97.360079,142.89856 97.366008,140.09135 C 97.372294,137.11471 103.34888,129.17757 105.43315,127.42742 C 106.73726,126.33236 107.46778,126.05443 108.32683,124.35468 C 109.59603,121.8434 111.48635,120.44175 113.31834,124.06636 C 116.79076,130.93655 122.38233,135.36227 128.3279,135.36227 C 130.21286,135.36227 133.4014,136.57627 134.07908,137.39283 C 135.88497,139.56879 135.88498,157.92239 134.29017,159.84402 C 132.22057,162.33774 124.99361,161.56089 118.08932,157.6849 z M 107,136.05902 C 107,133.36633 105.10826,132.46316 103.28571,134.28571 C 101.46316,136.10826 102.36633,138 105.05902,138 C 106.31366,138 107,137.31366 107,136.05902 z M 104.66667,53.333333 C 104.3,52.966667 104,49.112083 104,44.767592 C 104,34.191381 106.25994,29.885574 108.83948,35.547053 C 110.37507,38.917301 110.34684,51.253159 108.8,52.8 C 107.47227,54.127729 105.69091,54.357582 104.66667,53.333333 z M 115.66667,53.333333 C 115.3,52.966667 115,48.746767 115,43.955778 C 115,37.621489 115.39022,34.921036 116.43026,34.057878 C 117.57241,33.109976 118.07601,33.273506 118.93026,34.869692 C 120.07084,37.000877 120.40766,49.774073 119.39301,52.418213 C 118.76923,54.043773 116.84874,54.515408 115.66667,53.333333 z"
     style="fill:#1249c6"
     sodipodi:nodetypes="cssssssccsssssssccssccsssccssssc" />
  <path
     id="path2386"
     d="M 86.310777,205.79092 C 83.880307,203.10526 84.896301,185.88835 87.816457,180.27586 C 89.734453,176.58951 90.7033,175.85141 95.426478,174.47835 C 107.79906,170.88154 116.20319,170.75125 118.30925,174.12358 C 120.52311,177.66854 122.00113,176.31048 121.98084,170.75 L 121.96169,165.5 L 115.73084,161.85321 C 112.30388,159.84747 106.50601,155.45997 102.84668,152.10321 L 96.193364,146 L 86.796682,146 C 76.192737,146 75,145.38824 75,139.94948 C 75,136.64994 74.519268,136.00011 70,133.19078 L 65,130.08261 L 65,124.66375 C 65,121.06694 65.504362,118.82631 66.5,118 C 67.744037,116.96754 68,113.25819 68,96.262426 L 68,75.769741 L 71.5,72.563865 L 75,69.35799 L 75,59.64761 C 75,51.938652 74.690833,49.818592 73.5,49.361626 C 71.332717,48.529962 71.332717,34.193291 73.5,33.361626 C 74.539713,32.962651 75,31.339901 75,28.073347 C 75,24.292818 75.49449,22.930718 77.5,21.186949 C 78.893657,19.97518 80,17.930074 80,16.56563 C 80,15.219452 80.438367,13.847108 80.974149,13.515977 C 81.509931,13.184845 87.922431,11.117668 95.224149,8.9222483 C 108.40185,4.9600873 108.51014,4.9456194 109.87197,6.9652884 C 110.62656,8.0843798 112.05156,9 113.03864,9 C 114.33532,9 115.36347,10.595592 116.74379,14.75 C 118.44178,19.860546 118.97929,20.530494 121.57712,20.774206 C 129.56762,21.523825 129.28649,21.124564 128.81199,31.049162 L 128.38405,40 L 130.94202,40.015313 C 132.34891,40.023735 134.09952,40.410669 134.83226,40.875167 C 136.41493,41.878454 143.52478,74.190064 142.6592,76.445723 C 142.20445,77.630794 140.51907,78 135.56414,78 L 129.0655,78 L 128.78275,89.143347 C 128.53042,99.087911 128.28484,100.40575 126.5,101.39335 C 125.4,102.00201 124.31747,102.60753 124.09438,102.73896 C 123.87128,102.87038 123.41472,104.67038 123.07979,106.73896 C 122.53276,110.11751 122.11636,110.55085 118.98541,111 C 112.43622,111.93951 114.17222,118.004 122.15692,122.07925 C 124.88191,123.47003 126.25606,125.10362 127.54913,128.48948 C 128.73651,131.59857 130.00566,133.2143 131.56862,133.60658 C 135.56874,134.61054 136.98547,137.32869 138.13004,146.19534 C 139.14277,154.04071 139.06429,155.06623 137.11376,159.47573 C 134.3436,165.73814 134.13131,178.31569 136.73312,182.02749 C 138.01902,183.862 138.56236,187.09068 138.83876,194.53988 C 139.15679,203.11119 138.95946,204.78876 137.48967,206.00858 C 136.10559,207.15726 131.07138,207.44353 111.81275,207.46869 C 90.46196,207.4966 87.689297,207.31418 86.310777,205.79092 z M 101.61945,203.93616 C 108.44821,203.17471 114.29294,203.18551 122.18177,203.97417 C 130.47932,204.80369 133.54906,204.78921 134.60173,203.91557 C 136.09984,202.67225 136.33364,196.63831 135.17588,189.09835 C 134.19611,182.71764 130.92318,181.70088 111,181.5879 C 91.498251,181.47731 89.614281,182.20343 88.653831,190.20063 C 87.695433,198.18073 87.8676,202.4676 89.2,203.8 C 90.649459,205.24946 89.913972,205.2414 101.61945,203.93616 z M 134.01722,158.47925 C 135.61203,156.55762 134.79315,140.66061 132.98726,138.48465 C 132.30958,137.66809 130.21286,137 128.3279,137 C 122.38233,137 117.06371,133.12019 113.59129,126.25 C 111.73617,122.57963 109.44661,122.01751 108.5,125 C 108.15087,126.1 107.44174,127 106.92414,127 C 105.9853,127 107.43197,123.85695 109.69311,120.98412 C 110.34932,120.15039 111.02432,116.77539 111.19311,113.48412 L 111.5,107.5 L 115,107 C 118.30957,106.5272 118.51672,106.26902 118.80727,102.25468 C 119.06389,98.709144 119.51719,97.908297 121.55727,97.39627 C 123.99413,96.784656 124,96.751296 124,83.506602 C 124,70.448398 123.95888,70.203076 121.5,68.591957 C 119.35224,67.184688 119,66.204839 119,61.637462 C 119,56.917424 118.71562,56.191458 116.46496,55.165987 C 113.96347,54.026231 113.93369,53.876284 114.21496,43.836687 C 114.43909,35.83644 115.07835,33.902661 116.01206,33.097648 C 117.22264,32.053928 117.83784,33.295163 116.82902,34.364512 C 116.0234,35.218467 115.48252,38.443106 115.48252,44.134881 C 115.48252,51.309952 115.49326,52.405954 116.79393,52.905069 C 117.67444,53.242952 118.11702,53.180841 118.60309,52.413196 C 119.83341,50.470172 119.93451,37.962635 118.67531,35.609788 C 117.81607,34.004284 113.55707,31.793698 119.88303,33 C 123.30226,33.654511 125,31.83698 125,29.361626 C 125,26.779651 124.5389,26.493182 118.87429,25.555917 C 115.6051,25.014998 115.18955,24.586869 114.64828,21.201945 C 114.31812,19.13721 113.47469,16.677919 112.77399,15.736855 C 111.61253,14.176959 111.0313,14.150499 106.1936,15.437281 C 99.581082,17.196146 97.894611,18.562438 98.233493,21.886144 L 98.5,24.5 L 89.841238,24.787602 C 79.709645,25.124125 78.481034,25.968793 79.484438,31.907887 C 80.086883,35.473733 80.48431,35.916742 83.328179,36.192472 C 86.352001,36.485651 86.514222,36.721637 86.804791,41.25 C 87.10041,45.857057 87.025177,46.000461 84.304791,46.015313 C 78.741784,46.045684 78.959637,43.957401 79.239992,94.565202 L 79.5,141.5 L 85,141.81841 C 92.700356,142.26421 99,141.2024 99,139.45871 C 99,138.67839 102.2625,141.33196 106.25,145.35553 C 117.62201,156.83038 130.38095,162.86069 134.01722,158.47925 z M 104,54.097807 C 104,53.528536 104.68073,53.32399 105.51273,53.64326 C 106.34474,53.96253 107.76792,53.610907 108.67536,52.861876 C 110.08532,51.698038 110.25403,51.718124 109.8355,53 C 109.28103,54.698271 104,55.691768 104,54.097807 z M 103.0318,35.809017 C 103.01431,34.878976 103.47994,33.821415 104.06653,33.458881 C 105.82911,32.369547 106.07623,33.517925 104.52147,35.573001 C 103.2415,37.264866 103.05973,37.293665 103.0318,35.809017 z M 108.61562,35.440718 C 107.82528,33.38112 108.64968,32.249683 109.97503,33.575026 C 110.49296,34.092957 110.54808,35.113187 110.09752,35.842205 C 109.45381,36.883759 109.13637,36.797756 108.61562,35.440718 z M 125.0965,133.48536 C 125.0965,128.94584 119.12853,123 114.98227,123 C 112.90502,123 114.84984,127.69125 119.03836,131.25 C 122.97499,134.59473 125.0965,135.45442 125.0965,133.48536 z"
     style="fill:#000000;fill-opacity:1"
     sodipodi:nodetypes="csssccccccscccscccccssssssssssscccsscccsssssssssssssccssssssccsssssscccssssssssssssssssssscccsssscccssccsssccssccssccssc" />
</svg>
