<?xml version="1.0" encoding="UTF-8" standalone="no"?>
<!-- Created with Inkscape (http://www.inkscape.org/) -->
<svg
   xmlns:dc="http://purl.org/dc/elements/1.1/"
   xmlns:cc="http://creativecommons.org/ns#"
   xmlns:rdf="http://www.w3.org/1999/02/22-rdf-syntax-ns#"
   xmlns:svg="http://www.w3.org/2000/svg"
   xmlns="http://www.w3.org/2000/svg"
   xmlns:sodipodi="http://sodipodi.sourceforge.net/DTD/sodipodi-0.dtd"
   xmlns:inkscape="http://www.inkscape.org/namespaces/inkscape"
   id="svg2"
   sodipodi:version="0.32"
   inkscape:version="0.46"
   width="210"
   height="327"
   version="1.0"
   sodipodi:docname="gunorig3.svg"
   inkscape:output_extension="org.inkscape.output.svg.inkscape"
   inkscape:export-filename="/home/duncan/programming/coffeeworlds/data/gun3variable.png"
   inkscape:export-xdpi="90"
   inkscape:export-ydpi="90">
  <metadata
     id="metadata7">
    <rdf:RDF>
      <cc:Work
         rdf:about="">
        <dc:format>image/svg+xml</dc:format>
        <dc:type
           rdf:resource="http://purl.org/dc/dcmitype/StillImage" />
      </cc:Work>
    </rdf:RDF>
  </metadata>
  <defs
     id="defs5">
    <inkscape:perspective
       sodipodi:type="inkscape:persp3d"
       inkscape:vp_x="0 : 526.18109 : 1"
       inkscape:vp_y="0 : 1000 : 0"
       inkscape:vp_z="744.09448 : 526.18109 : 1"
       inkscape:persp3d-origin="372.04724 : 350.78739 : 1"
       id="perspective9" />
    <inkscape:perspective
       id="perspective2444"
       inkscape:persp3d-origin="372.04724 : 350.78739 : 1"
       inkscape:vp_z="744.09448 : 526.18109 : 1"
       inkscape:vp_y="0 : 1000 : 0"
       inkscape:vp_x="0 : 526.18109 : 1"
       sodipodi:type="inkscape:persp3d" />
  </defs>
  <sodipodi:namedview
     inkscape:window-height="772"
     inkscape:window-width="1280"
     inkscape:pageshadow="2"
     inkscape:pageopacity="0.0"
     guidetolerance="10.0"
     gridtolerance="10.0"
     objecttolerance="10.0"
     borderopacity="1.0"
     bordercolor="#666666"
     pagecolor="#ffffff"
     id="base"
     showgrid="false"
     inkscape:zoom="2"
     inkscape:cx="115.3172"
     inkscape:cy="222.86259"
     inkscape:window-x="0"
     inkscape:window-y="18"
     inkscape:current-layer="svg2" />
  <path
     style="fill:#000000;fill-opacity:1;fill-rule:evenodd;stroke:#000000;stroke-width:1px;stroke-linecap:butt;stroke-linejoin:miter;stroke-opacity:1"
     d="M 83.5,188 C 81,68 79.398768,82.48917 81,68 C 81.875422,60.078509 91.198852,63.250757 87.5,58 C 83.174392,51.859523 78.523477,55.317541 79.5,48 C 81.07144,36.224468 87.307761,47.432093 88.5,37 C 89,32.625 89.052732,31.511392 85,29 C 76.034352,23.444178 76.76821,19.73179 71,14 C 66.485771,9.5142738 67.496205,3.0842527 99.5,2.9999998 C 118.78067,2.9479254 145.78655,0.6967847 138.5,11 C 129.77845,23.332318 123,18 123,24 C 123,47.286262 132.66824,41.06073 127.5,52.5 C 125.02108,57.986796 118,56 123.5,59.5 C 135.22052,66.958513 131.10969,73.989436 132.5,89 C 134.38318,109.3318 144.57036,180.07323 138.5,186 C 129.35786,194.92588 92,194.5 83.5,188 z"
     id="path3274"
     sodipodi:nodetypes="csssssssssssssc" />
  <path
     style="fill:#fffffa;fill-opacity:1;fill-rule:evenodd;stroke:#000000;stroke-width:0.81575871px;stroke-linecap:butt;stroke-linejoin:miter;stroke-opacity:1"
     d="M 90.405226,181.37322 C 88.52203,75.362691 87.315857,88.16273 88.52203,75.362691 C 89.181472,68.364679 91.308302,68.958557 93.418341,66.528481 C 111.94643,66.204003 114.94656,64.386865 120.53637,67.853612 C 129.36519,74.44262 126.26859,80.653885 127.31588,93.914534 C 128.73444,111.87607 136.40822,174.37054 131.83555,179.60638 C 124.94897,187.49169 96.808095,187.11546 90.405226,181.37322 z"
     id="path3276"
     sodipodi:nodetypes="csccssc" />
  <path
     style="fill:#00bf00;fill-opacity:1;fill-rule:evenodd;stroke:#000000;stroke-width:0.62844895999999995px;stroke-linecap:butt;stroke-linejoin:miter;stroke-opacity:1"
     d="M 98.758731,51.997486 C 95.374239,50.690841 91.332582,50.657403 91.816793,44.828961 C 92.595995,35.449717 95.688292,44.376621 96.279467,36.06743 C 96.527394,32.582731 96.553545,31.695739 94.543983,29.695408 C 90.098345,25.270181 90.462227,22.313253 87.602044,17.747867 C 85.363651,14.174974 85.86468,9.0534434 101.73385,8.9863364 C 111.29422,8.9448585 124.68516,7.1518185 121.07211,15.358359 C 116.7475,25.181084 113.38639,20.933878 113.38639,25.712894 C 113.38639,44.260467 118.18041,39.301813 115.61772,48.413223 C 114.38855,52.783472 114.13017,51.997486 110.90712,52.395737 C 101.02608,55.160504 107.91374,54.838529 98.758731,51.997486 z"
     id="path3278"
     sodipodi:nodetypes="csssssssscc" />
</svg>
