<?xml version="1.0" encoding="UTF-8" standalone="no"?>
<!-- Created with Inkscape (http://www.inkscape.org/) -->
<svg
   xmlns:dc="http://purl.org/dc/elements/1.1/"
   xmlns:cc="http://creativecommons.org/ns#"
   xmlns:rdf="http://www.w3.org/1999/02/22-rdf-syntax-ns#"
   xmlns:svg="http://www.w3.org/2000/svg"
   xmlns="http://www.w3.org/2000/svg"
   xmlns:xlink="http://www.w3.org/1999/xlink"
   xmlns:sodipodi="http://sodipodi.sourceforge.net/DTD/sodipodi-0.dtd"
   xmlns:inkscape="http://www.inkscape.org/namespaces/inkscape"
   id="svg2"
   sodipodi:version="0.32"
   inkscape:version="0.46"
   width="1594"
   height="479"
   version="1.0"
   sodipodi:docname="map1front.svg"
   inkscape:output_extension="org.inkscape.output.svg.inkscape"
   inkscape:export-filename="/home/duncan/programming/coffeeworlds/data/map1front7.png"
   inkscape:export-xdpi="90"
   inkscape:export-ydpi="90">
  <metadata
     id="metadata7">
    <rdf:RDF>
      <cc:Work
         rdf:about="">
        <dc:format>image/svg+xml</dc:format>
        <dc:type
           rdf:resource="http://purl.org/dc/dcmitype/StillImage" />
      </cc:Work>
    </rdf:RDF>
  </metadata>
  <defs
     id="defs5">
    <inkscape:perspective
       sodipodi:type="inkscape:persp3d"
       inkscape:vp_x="0 : 526.18109 : 1"
       inkscape:vp_y="0 : 1000 : 0"
       inkscape:vp_z="744.09448 : 526.18109 : 1"
       inkscape:persp3d-origin="372.04724 : 350.78739 : 1"
       id="perspective9" />
  </defs>
  <sodipodi:namedview
     inkscape:window-height="798"
     inkscape:window-width="1158"
     inkscape:pageshadow="2"
     inkscape:pageopacity="0.0"
     guidetolerance="10.0"
     gridtolerance="10.0"
     objecttolerance="10.0"
     borderopacity="1.0"
     bordercolor="#666666"
     pagecolor="#ffffff"
     id="base"
     showgrid="false"
     inkscape:zoom="0.33312422"
     inkscape:cx="707.54849"
     inkscape:cy="204.26364"
     inkscape:window-x="1"
     inkscape:window-y="20"
     inkscape:current-layer="svg2" />
  <image
     xlink:href="map1front.png"
     sodipodi:absref="/home/duncan/programming/coffeeworlds/data/map1front.png"
     width="1594"
     height="479"
     id="image11"
     x="0"
     y="0" />
  <path
     id="path2394"
     d="M 0,239.5 L 0,0 L 797,0 L 1594,0 L 1594,239.5 L 1594,479 L 797,479 L 0,479 L 0,239.5 z"
     style="fill:#ca9964" />
  <path
     id="path2392"
     d="M 22.448986,470.72432 C 22.191292,470.05094 22.09735,444.75 22.240226,414.5 L 22.5,359.5 L 67.5,359 L 112.5,358.5 L 112.5,296.5 L 112.5,234.5 L 107.5,234 L 102.5,233.5 L 102.5,188.5 L 102.5,143.5 L 113,143 L 123.5,142.5 L 124,126 L 124.5,109.5 L 130,109 L 135.5,108.5 L 136,103.5 L 136.5,98.5 L 141.5,98 L 146.5,97.5 L 147,92.5 L 147.5,87.5 L 152.5,87 L 157.5,86.5 L 158,81 L 158.5,75.5 L 164,75 L 169.5,74.5 L 170,64 L 170.5,53.5 L 175.5,53 L 180.5,52.5 L 181,47.5 L 181.5,42.5 L 186.5,42 L 191.5,41.5 L 192,36 L 192.5,30.5 L 215,30 L 237.5,29.5 L 238,24.5 L 238.5,19.5 L 311.5,19.5 L 384.5,19.5 L 385,24.5 L 385.5,29.5 L 436,29.5 L 486.5,29.5 L 487,24.5 L 487.5,19.5 L 504,19 L 520.5,18.5 L 521,13.5 L 521.5,8.5 L 617,8.5 L 712.5,8.5 L 713,13.5 L 713.5,18.5 L 735.5,19 L 757.5,19.5 L 758,47 L 758.5,74.5 L 769.5,75 L 780.5,75.5 L 780.75762,137.22904 L 781.01524,198.95807 L 778.75762,199.47923 C 777.51593,199.76587 772.45,200.11281 767.5,200.2502 L 758.5,200.5 L 758.5,205.5 L 758.5,210.5 L 798,210.5 L 837.5,210.5 L 837.5,205.5 L 837.5,200.5 L 821.26285,200.22529 C 805.41198,199.95712 805.01288,199.89764 804.48661,197.72529 C 804.19011,196.50138 804.07183,168.5 804.22376,135.5 L 804.5,75.5 L 821,75 L 837.5,74.5 L 838,47 L 838.5,19.5 L 860.5,19 L 882.5,18.5 L 883,13.5 L 883.5,8.5 L 979,8.5 L 1074.5,8.5 L 1075,13.5 L 1075.5,18.5 L 1092,19 L 1108.5,19.5 L 1109,24.5 L 1109.5,29.5 L 1160,29.5 L 1210.5,29.5 L 1211,24.5 L 1211.5,19.5 L 1285,19.5 L 1358.5,19.5 L 1359,24.5 L 1359.5,29.5 L 1381.5,30 L 1403.5,30.5 L 1404,36 L 1404.5,41.5 L 1409.5,42 L 1414.5,42.5 L 1415,47.5 L 1415.5,52.5 L 1421,53 L 1426.5,53.5 L 1427,64 L 1427.5,74.5 L 1432.5,75 L 1437.5,75.5 L 1438,81 L 1438.5,86.5 L 1443.5,87 L 1448.5,87.5 L 1449,92.5 L 1449.5,97.5 L 1454.5,98 L 1459.5,98.5 L 1460,103.5 L 1460.5,108.5 L 1466,109 L 1471.5,109.5 L 1472,126 L 1472.5,142.5 L 1483,143 L 1493.5,143.5 L 1493.5,188.5 L 1493.5,233.5 L 1488.5,234 L 1483.5,234.5 L 1483.5,296.5 L 1483.5,358.5 L 1528.5,359 L 1573.5,359.5 L 1573.5,415.5 L 1573.5,471.5 L 1421.561,471.75323 C 1300.6699,471.95471 1269.4594,471.75036 1268.8263,470.75323 C 1268.3887,470.06395 1268.0237,444.64209 1268.0153,414.26019 L 1268,359.02038 L 1222.75,358.76019 L 1177.5,358.5 L 1177.5,325 L 1177.5,291.5 L 1183,291 L 1188.5,290.5 L 1189,285 L 1189.5,279.5 L 1194.5,279.5 L 1199.5,279.5 L 1200,285 L 1200.5,290.5 L 1217,290.5 L 1233.5,290.5 L 1233.5,274 L 1233.5,257.5 L 1205.5,257 L 1177.5,256.5 L 1177,234 L 1176.5,211.5 L 1159.7688,211.22591 L 1143.0377,210.95181 L 1142.7688,233.72591 L 1142.5,256.5 L 1115,257 L 1087.5,257.5 L 1087,274 L 1086.5,290.5 L 1007.5,291 L 928.5,291.5 L 928,319 L 927.5,346.5 L 911,347 L 894.5,347.5 L 894.2502,356.5 C 894.11281,361.45 893.7663,366.51425 893.48017,367.75388 L 892.95995,370.00777 L 701.22997,369.75388 L 509.5,369.5 L 509,364.5 L 508.5,359.5 L 418.5,359.5 L 328.5,359.5 L 327.97898,415.5 C 327.69242,446.3 327.35492,471.62772 327.22898,471.78383 C 327.10304,471.93994 322.1625,471.93994 316.25,471.78383 L 305.5,471.5 L 305,466 L 304.5,460.5 L 214.5,460.5 L 124.5,460.5 L 124.23006,464 C 124.08159,465.925 123.73895,468.49883 123.46863,469.71962 L 122.97715,471.93924 L 72.947333,471.94394 C 34.401423,471.94756 22.809972,471.6676 22.448986,470.72432 z M 1482,446.04705 C 1482,427.56164 1482.5856,428.27878 1467.1349,427.84274 C 1460.1857,427.64663 1415.2375,427.65386 1367.25,427.85881 L 1280,428.23144 L 1280,443.61572 L 1280,459 L 1381,459 L 1482,459 L 1482,446.04705 z M 712,350.64922 C 712,346.6063 711.50989,341.89252 710.91087,340.17416 L 709.82174,337.04988 L 694.16087,336.77494 L 678.5,336.5 L 678,310.5 C 677.64409,291.99268 677.13059,283.85337 676.21811,282.25616 L 674.93623,280.01232 L 597.71811,279.75616 L 520.5,279.5 L 519.9171,270.99649 C 519.07853,258.76315 518.74885,258.36329 508.77154,257.4782 C 504.22219,257.07463 492.175,256.91443 482,257.12222 L 463.5,257.5 L 463.18916,253.74196 C 462.68249,247.6165 465.7172,247.554 473.89788,253.52141 C 477.15406,255.89663 477.91723,256 492.19754,256 C 503.59919,256 507.7923,255.64165 510.04966,254.47432 C 511.67235,253.6352 513,252.56479 513,252.09564 C 513,251.62649 514.35,250.68345 516,250 C 517.65,249.31655 519,248.14407 519,247.3945 C 519,246.28314 513.87892,245.98258 491.25,245.76582 L 463.5,245.5 L 463,197 C 462.61944,160.08594 462.19299,147.96251 461.21482,146.25 C 459.937,144.0129 459.78919,144 435.44007,144 L 410.9505,144 L 409.72525,146.75 C 408.83785,148.74171 408.36213,162.73567 408,197.5 L 407.5,245.5 L 381.02859,246 L 354.55718,246.5 L 353.29333,249 C 351.65636,252.23807 351.48752,293.23145 353.09219,297.83462 L 354.18438,300.96768 L 380.84219,301.23384 L 407.5,301.5 L 408,323.5 L 408.5,345.5 L 461.5,346 C 500.38157,346.36681 515.06283,346.8228 516.61285,347.71178 C 518.50889,348.79922 519.62189,350.79481 521.37488,356.25 C 521.90524,357.90045 527.34343,358 616.96862,358 L 712,358 L 712,350.64922 z M 237.5,262.5 L 237.5,189.5 L 232,189.5 L 226.5,189.5 L 226,257 L 225.5,324.5 L 215,325 L 204.5,325.5 L 204.18337,329.35516 C 203.61724,336.24795 203.17108,336.07991 221.22816,335.77488 L 237.5,335.5 L 237.5,262.5 z M 1392.5,330.5 L 1392.5,325.5 L 1381.5,325 L 1370.5,324.5 L 1370,257 L 1369.5,189.5 L 1364.5,189.5 L 1359.5,189.5 L 1359.2413,261.5 C 1359.099,301.1 1359.2017,334.07369 1359.4694,334.77488 C 1359.8425,335.75179 1363.7594,335.98551 1376.2282,335.77488 L 1392.5,335.5 L 1392.5,330.5 z M 667.5,160.5 L 667.5,155.5 L 645.5,155 L 623.5,154.5 L 623,143.5 L 622.5,132.5 L 606,132.5 L 589.5,132.5 L 589.22283,147.95801 C 589.07039,156.45992 589.1708,164.00272 589.44596,164.71978 C 589.84772,165.76673 597.5843,165.97197 628.72313,165.76177 L 667.5,165.5 L 667.5,160.5 z M 1007.7743,148.72571 L 1008.0486,131.95142 L 991.27429,132.22571 L 974.5,132.5 L 974,143.5 L 973.5,154.5 L 951,155 L 928.5,155.5 L 928.18337,159.35516 C 927.59641,166.50165 924.77996,166.05102 968.22308,165.76163 L 1007.5,165.5 L 1007.7743,148.72571 z M 1234.4514,391.73403 C 1234.1609,390.97702 1234.053,385.88967 1234.2116,380.42882 L 1234.5,370.5 L 1239.5,370.5 L 1244.5,370.5 L 1244.5,381.5 L 1244.5,392.5 L 1239.7398,392.80521 C 1236.3992,393.0194 1234.8221,392.69994 1234.4514,391.73403 z M 1506.4514,334.73403 C 1506.1609,333.97702 1506.053,328.88967 1506.2116,323.42882 L 1506.5,313.5 L 1511.5,313.5 L 1516.5,313.5 L 1516.5,324.5 L 1516.5,335.5 L 1511.7398,335.80521 C 1508.3992,336.0194 1506.8221,335.69994 1506.4514,334.73403 z M 1562.4257,289.66705 C 1562.1222,288.87602 1562.0147,286.26483 1562.1869,283.8644 L 1562.5,279.5 L 1568,279.5 L 1573.5,279.5 L 1573.5,285 L 1573.5,290.5 L 1568.2388,290.80265 C 1564.3753,291.0249 1562.831,290.72323 1562.4257,289.66705 z M 1506.4232,232.66037 C 1506.1171,231.86284 1506.0092,229.4755 1506.1834,227.35516 L 1506.5,223.5 L 1511.5,223.5 L 1516.5,223.5 L 1516.5,228.5 L 1516.5,233.5 L 1511.7398,233.80521 C 1508.2922,234.02625 1506.8262,233.71056 1506.4232,232.66037 z"
     style="fill:#a25807" />
  <path
     id="path2390"
     d="M 33.656906,459.23857 C 33.411055,458.83236 33.050176,438.57125 32.854952,414.21388 C 32.546064,375.67498 32.694662,369.80466 34,368.97919 C 34.879833,368.42281 51.954962,368.02429 75.29966,368.01531 C 117.79489,367.99896 119.41804,367.82444 122.00333,362.99378 C 122.72635,361.6428 122.99167,342.44941 122.83353,302.93641 C 122.63418,253.12876 122.80738,244.73407 124.05055,243.94759 C 124.84775,243.44326 128.5007,243.02373 132.16821,243.01531 C 135.83573,243.00689 139.56487,242.72047 140.4552,242.37882 C 144.57066,240.79957 146.468,230.54088 143.4433,226.22251 C 141.96186,224.10746 141.2159,224 128.01472,224 C 117.44388,224 113.809,223.66614 112.73988,222.59703 C 111.57822,221.43536 111.40238,215.71649 111.71753,189.34703 C 111.92688,171.83116 112.29765,156.5353 112.54147,155.35623 C 112.94264,153.41625 113.75519,153.17747 121.08913,152.84442 C 128.50063,152.50785 129.39894,152.23753 131.59674,149.68243 C 133.70953,147.22616 134.00105,145.89808 134.00869,138.69424 C 134.01347,134.18741 134.30199,128.13046 134.64984,125.23436 C 135.25398,120.20439 135.47284,119.88443 139.53989,118.08538 C 142.8013,116.6427 144.10639,115.34777 145.11774,112.55094 C 146.13632,109.7341 147.43231,108.46001 150.78963,106.97491 C 154.17477,105.4775 155.48291,104.18022 156.67954,101.1339 C 157.8565,98.137654 159.11376,96.865883 162.03217,95.7195 C 164.77966,94.640253 166.43216,93.073224 167.94039,90.116854 C 169.32014,87.412307 171.17752,85.534842 173.38644,84.611897 C 178.45721,82.49319 179.99762,79.568847 180.01531,72.027494 C 180.02373,68.437372 180.36123,64.988076 180.76531,64.362391 C 181.16939,63.736705 183.16963,62.529633 185.21029,61.680008 C 187.7946,60.604039 189.46534,58.978301 190.71564,56.322968 C 191.89849,53.810883 193.7602,51.922358 196.17435,50.785619 C 198.43094,49.723072 200.70796,47.512673 202.10314,45.030269 C 204.15785,41.374417 204.74601,40.995618 208.43414,40.952831 C 224.97737,40.760909 240.76695,39.662027 242.87853,38.55566 C 244.22588,37.849715 246.30719,35.523395 247.50368,33.386062 L 249.67911,29.5 L 311.26044,29.242402 L 372.84177,28.984804 L 375.17532,33.215082 C 376.45878,35.541735 378.63188,38.019671 380.00444,38.721606 C 381.95581,39.719552 394.30709,39.943571 436.64563,39.748926 C 489.01856,39.50815 490.86286,39.435186 492.97818,37.520302 C 494.18099,36.431468 495.75479,34.129304 496.4755,32.404382 L 497.7859,29.26816 L 511.37274,28.80736 C 526.37677,28.298496 527.92471,27.692869 530.64412,21.267521 C 531.43343,19.402541 532.96148,17.805463 534.2561,17.492365 C 535.49024,17.193893 573.625,17.073508 619,17.224844 L 701.5,17.5 L 703.23106,21 C 706.6036,27.818896 707.2193,28 727.029,28 C 736.82308,28 745.54823,28.273145 746.41821,28.606989 C 747.79446,29.135104 748.00072,32.091291 748.00558,51.356989 C 748.01389,84.368524 747.94901,84.252705 766.85223,85 L 779.5,85.5 L 779.5,137.42581 L 779.5,189.35163 L 766,189.64157 C 748.88098,190.00925 749,189.9077 749,204.14597 C 749,215.66965 750.18232,218.40078 755.85281,219.97581 C 760.57579,221.28766 837.94944,221.34992 841.3826,220.04463 C 845.41373,218.512 847.26042,214.62251 847.77673,206.57736 C 848.27397,198.82928 847.00505,193.08181 844.30003,190.82999 C 843.20961,189.92226 838.22543,189.34126 828.60119,189 L 814.5,188.5 L 814.5,137 L 814.5,85.5 L 828.14803,85 C 848.2048,84.265214 847.98604,84.636053 847.99442,51.356989 C 847.99928,32.091291 848.20554,29.135104 849.58179,28.606989 C 850.45177,28.273145 859.17692,28 868.971,28 C 888.7807,28 889.3964,27.818896 892.76894,21 L 894.5,17.5 L 979.48657,17.5 L 1064.4731,17.5 L 1066.5717,21.929067 C 1067.7258,24.365054 1069.5319,26.695925 1070.5851,27.108782 C 1071.6383,27.521638 1077.9,27.897949 1084.5,27.945028 C 1091.1,27.992106 1097.0119,28.361235 1097.6376,28.765313 C 1098.2633,29.169391 1099.4627,31.151279 1100.303,33.169509 C 1101.1432,35.187738 1102.8813,37.410943 1104.1653,38.109964 C 1105.9893,39.102883 1118.3129,39.323509 1160.5,39.118509 C 1220.2593,38.828122 1217.5042,39.143324 1220.7622,32.224118 L 1222.5157,28.5 L 1284.993,28.5 L 1347.4703,28.5 L 1349.7254,33.25 C 1350.9658,35.8625 1352.0974,38.088399 1352.2403,38.196442 C 1352.3831,38.304485 1361.5,38.641985 1372.5,38.946442 L 1392.5,39.5 L 1394.2086,42.922848 C 1396.3526,47.218046 1397.7801,48.64615 1402.0742,50.791438 C 1403.9552,51.731147 1405.6544,53.4 1405.8503,54.5 C 1406.3499,57.305391 1408.9061,59.937128 1413,61.86107 C 1416.4588,63.486527 1416.506,63.594177 1417.0085,71.002948 C 1417.6203,80.023797 1418.8514,82.465809 1423.5724,84.023906 C 1426.3745,84.948657 1427.559,86.138297 1428.981,89.455771 C 1430.4193,92.81116 1431.67,94.050934 1434.9343,95.357049 C 1437.2072,96.266469 1439.3176,97.795668 1439.6241,98.75527 C 1441.0503,103.22052 1442.5693,105.01064 1446.1469,106.44209 C 1449.1421,107.64056 1450.3811,108.91188 1451.654,112.09329 C 1452.9587,115.35411 1454.1913,116.58171 1457.6482,118.06353 L 1462,119.92893 L 1462.0239,130.21446 C 1462.0504,141.67001 1463.0645,147.4931 1465.4481,149.87663 C 1466.5179,150.94647 1469.6989,151.66697 1475.1066,152.06433 C 1480.4587,152.4576 1483.4724,153.1348 1484.0696,154.07841 C 1485.5082,156.3513 1485.2532,221.34682 1483.8,222.8 C 1482.9839,223.61607 1478.2344,224 1468.955,224 C 1456.8807,224 1455.1145,224.21595 1453.6122,225.87597 C 1449.7216,230.1751 1451.0514,239.3516 1455.9446,241.97036 C 1457.0028,242.53666 1461.0215,243 1464.8752,243 C 1469.3914,243 1472.1636,243.44432 1472.6743,244.25 C 1473.1101,244.9375 1473.3133,270.77186 1473.1259,301.65969 C 1472.8739,343.21104 1473.095,358.75782 1473.9759,361.42708 C 1476.1459,368.00217 1476.1302,368 1521.4152,368 C 1560.3651,368 1561.9694,368.07426 1562.9588,369.92296 C 1563.6304,371.17786 1563.9032,387.07178 1563.744,415.67296 L 1563.5,459.5 L 1523,459.5 L 1482.5,459.5 L 1481.9766,445.5 C 1481.6887,437.8 1481.078,430.7125 1480.6196,429.75 C 1479.9064,428.25268 1478.3175,428 1469.6153,428 C 1460.682,428 1459.2361,427.75666 1457.732,426 C 1456.7902,424.9 1455.0027,423.99181 1453.7598,423.9818 C 1452.5169,423.97179 1449.5198,422.62179 1447.0995,420.9818 C 1444.6793,419.34181 1441.9732,418 1441.0862,418 C 1439.0086,418 1429.0585,424.68403 1428.3369,426.56433 C 1427.865,427.79406 1417.1302,428 1353.5,428 C 1286.6834,428 1279.1529,427.84095 1278.607,426.41821 C 1278.2731,425.54823 1278,409.15252 1278,389.98331 C 1278,370.33618 1277.5846,354.03761 1277.0479,352.6259 C 1276.5242,351.24854 1275.2252,349.65569 1274.1611,349.08624 C 1272.9255,348.42495 1257.4499,348.02059 1231.3278,347.96707 C 1208.8336,347.92097 1189.7997,347.49425 1189.0304,347.0188 C 1187.9015,346.32107 1187.619,341.75184 1187.5659,323.32717 L 1187.5,300.5 L 1212,300 C 1236.3534,299.50299 1238.9911,299.12545 1241.8059,295.73384 C 1242.5777,294.80396 1242.9774,287.28621 1243.0402,272.52357 C 1243.1291,251.63663 1243.0423,250.59773 1241.0407,248.59433 C 1239.0539,246.60563 1237.6509,246.47478 1213.2242,246 L 1187.5,245.5 L 1187.7468,225 C 1187.8825,213.725 1188.2344,192.75446 1188.5286,178.3988 C 1188.8657,161.95498 1188.6911,151.31771 1188.0567,149.64926 C 1187.503,148.19267 1185.5761,146.08858 1183.7749,144.97351 C 1180.7116,143.07708 1179.1217,142.96399 1159.1661,143.22305 L 1137.8321,143.5 L 1134.8853,146.80016 L 1131.9386,150.10033 L 1132.4558,177.30016 C 1132.7403,192.26007 1133.2232,213.20586 1133.529,223.84635 C 1133.9308,237.82718 1133.7619,243.58199 1132.92,244.59635 C 1131.9779,245.73153 1127.0552,246 1107.1823,246 L 1082.6094,246 L 1079.8047,248.68709 C 1077.008,251.36652 1077,251.41197 1077,264.62807 C 1077,273.39962 1076.618,278.11808 1075.8703,278.58015 C 1075.249,278.96415 1041.2237,279.23016 1000.2585,279.1713 C 918.3636,279.05362 921.29773,278.83857 919.10842,285.11884 C 918.41764,287.1004 918,297.24123 918,312.03259 L 918,335.76674 L 915.75,336.37101 C 914.5125,336.70336 908.775,336.70866 903,336.38279 C 896.32482,336.00612 891.48064,336.19044 889.70163,336.88878 C 885.90392,338.37957 884,343.39136 884,351.89749 L 884,358.85921 L 868.25,359.23494 C 859.5875,359.44159 821.54602,359.58577 783.71337,359.55533 C 727.44614,359.51007 714.77649,359.25684 714.1012,358.16399 C 713.64715,357.42919 713.01487,353.82919 712.69615,350.16399 C 712.37742,346.4988 711.60029,342.04872 710.96919,340.27494 L 709.82174,337.04988 L 694.20691,336.77494 L 678.59207,336.5 L 678.52343,312 C 678.46557,291.35218 678.19161,286.91135 676.781,283.75618 L 675.10722,280.01237 L 597.80361,279.75618 L 520.5,279.5 L 519.9171,270.99649 C 519.07853,258.76315 518.74885,258.36329 508.77154,257.4782 C 504.22219,257.07463 492.175,256.91443 482,257.12222 L 463.5,257.5 L 463.18916,253.74196 C 462.68249,247.6165 465.7172,247.554 473.89788,253.52141 C 477.15406,255.89663 477.91723,256 492.19754,256 C 503.59919,256 507.7923,255.64165 510.04966,254.47432 C 511.67235,253.6352 513,252.56479 513,252.09564 C 513,251.62649 514.35,250.68345 516,250 C 517.65,249.31655 519,248.14407 519,247.3945 C 519,246.28314 513.87892,245.98258 491.25,245.76582 L 463.5,245.5 L 463,197 C 462.61944,160.08594 462.19299,147.96251 461.21482,146.25 C 459.937,144.0129 459.78919,144 435.44007,144 L 410.9505,144 L 409.72525,146.75 C 408.83785,148.74171 408.36213,162.73567 408,197.5 L 407.5,245.5 L 381.02859,246 L 354.55718,246.5 L 353.29333,249 C 352.39255,250.78183 352.02525,257.7052 352.01474,273.10078 C 352.00031,294.24236 352.77262,300.75318 355.34783,301.19984 C 355.98152,301.30975 367.975,301.42225 382,301.44984 L 407.5,301.5 L 408,323.85013 C 408.48048,345.32759 408.42313,346.24134 406.53133,347.25234 C 405.22093,347.95263 397.65762,348.08938 383.91223,347.66131 C 372.5545,347.3076 354.10796,347.31359 342.91992,347.67463 C 323.16979,348.31197 322.50783,348.40126 320.16491,350.74418 C 317.82833,353.08076 317.76208,353.55928 318.07652,365.82865 C 318.25512,372.79789 318.31097,390.62169 318.20062,405.43709 L 318,432.37418 L 314.93425,429.43709 L 311.86849,426.5 L 239.76461,426.28037 C 191.9012,426.13457 167.31433,425.71433 166.63037,425.03037 C 166.06366,424.46366 164.4525,423.98748 163.05,423.97218 C 161.6475,423.95688 158.73234,422.60688 156.57186,420.97218 C 154.41138,419.33748 151.66865,418 150.4769,418 C 149.28514,418 145.59771,419.75308 142.2826,421.89574 C 136.58224,425.58006 135.76097,425.81071 127.14922,426.14574 C 118.76314,426.472 117.82421,426.71908 115.27166,429.27143 C 112.58202,431.96085 112.50399,432.34554 112.63482,442.27143 C 112.70898,447.89714 112.93398,454.075 113.13482,456 L 113.5,459.5 L 73.801954,459.73857 C 51.968029,459.86979 33.902757,459.64479 33.656906,459.23857 z M 243.1504,343.91951 C 248.05507,341.29461 248.08351,340.80199 247.47614,268.99978 C 247.07802,221.93431 247.23072,201.43741 247.99004,200.01861 C 248.98804,198.15384 250.05416,198 261.97942,198 C 274.02411,198 275.06829,197.84533 277.57393,195.69007 C 279.34899,194.16322 280.52305,191.87492 281.03715,188.94007 C 281.46492,186.49803 282.23764,182.025 282.75431,179 C 284.13595,170.91074 283.6149,161.86809 281.58899,158.77617 C 278.77279,154.4781 275.49244,154 248.81866,154 C 220.28301,154 217.95934,154.45973 215.38784,160.6142 C 214.26297,163.30639 213.9992,166.21484 214.40965,171.40019 C 215.39841,183.89131 216.8085,244.4214 216.90579,278.55 C 216.97557,303.0304 216.68885,311.91115 215.8,312.8 C 215.08833,313.51167 211.66262,314 207.38179,314 C 203.41177,314 199.43513,314.27953 198.5448,314.62118 C 195.53835,315.77487 193.86481,320.82371 193.81144,328.90116 C 193.7547,337.48734 195.57427,342.48685 199.30236,343.98821 C 202.54063,345.2923 240.69701,345.23252 243.1504,343.91951 z M 1397.9455,344.02917 C 1400.9695,342.41079 1402.7209,336.20379 1402.5173,327.82686 C 1402.2209,315.63331 1399.4726,313 1387.0433,313 L 1380.2168,313 L 1379.5337,294.75 C 1378.809,275.39137 1379.5083,188.52176 1380.5279,171.23971 L 1381.1333,160.97942 L 1378.1436,157.98971 C 1375.3031,155.14927 1374.7131,154.9933 1366.3269,154.86573 C 1344.7755,154.53791 1321.2816,155.19385 1318.7028,156.19537 C 1314.5829,157.79544 1313,161.7481 1313,170.43599 C 1313,177.36708 1313.5293,180.87973 1316.1353,191.24418 C 1317.5627,196.92078 1320.5488,198 1334.8279,198 C 1343.8811,198 1347.0376,198.34033 1347.9273,199.4124 C 1348.8024,200.46678 1349.053,218.15746 1348.9161,269.20367 C 1348.7521,330.38205 1348.9026,337.91091 1350.3453,340.70092 C 1351.2323,342.41603 1352.5299,344.04944 1353.229,344.33071 C 1355.6023,345.28561 1396.1082,345.01247 1397.9455,344.02917 z M 673.67422,173.51563 C 676.82143,171.31124 677.89314,167.04753 677.68589,157.55549 C 677.51452,149.70682 677.28353,148.82515 674.72932,146.27082 L 671.95864,143.5 L 652.32905,143.17165 L 632.69947,142.84329 L 633.32892,129.17165 C 634.26397,108.86213 634.45406,109 605.51608,109 C 583.27319,109 580.67487,109.50196 578.11001,114.29444 C 577.19096,116.01171 577.00676,118.38859 577.50281,122.12975 C 577.89444,125.08339 578.30367,136.5 578.41221,147.5 C 578.57511,164.01006 578.90168,168.05135 580.28373,170.65965 C 581.20453,172.39746 582.52989,174.04944 583.22896,174.33071 C 583.92803,174.61198 604.08737,174.87763 628.02749,174.92105 C 664.98644,174.98809 671.87479,174.776 673.67422,173.51563 z M 1014.5477,172.35398 C 1017.3837,169.2939 1017.1894,170.98459 1017.519,146.5 C 1017.6597,136.05 1018.0896,124.95635 1018.4743,121.84744 C 1019.2812,115.32732 1017.7107,111.8629 1013.2013,110.21531 C 1008.3153,108.43013 990.23992,106.80123 988.08917,107.95228 C 987.01244,108.52853 982.52307,109 978.11279,109 C 963.286,109 961.77988,111.03332 962.67926,129.83588 L 963.30312,142.87823 L 943.67194,143.18911 L 924.04076,143.5 L 921.3374,146.20571 C 919.14995,148.39505 918.551,150.05925 918.19899,154.92581 C 917.56983,163.6238 918.73952,169.83043 921.53465,172.62556 L 923.90909,175 L 968.00229,175 L 1012.0955,175 L 1014.5477,172.35398 z M 316,457.55902 C 316,456.70156 316.45,456 317,456 C 317.55,456 318,456.42344 318,456.94098 C 318,457.45852 317.55,458.16008 317,458.5 C 316.45,458.83992 316,458.41648 316,457.55902 z M 1236,389.5 C 1236,388.675 1236.45,388 1237,388 C 1237.55,388 1238,388.675 1238,389.5 C 1238,390.325 1237.55,391 1237,391 C 1236.45,391 1236,390.325 1236,389.5 z M 1239,379.5 C 1239,378.47004 1239.6554,377.97957 1240.75,378.19037 C 1242.8578,378.5963 1242.7249,380.37105 1240.5528,380.82332 C 1239.6468,381.01197 1239,380.46073 1239,379.5 z M 1508,333 C 1508,332.45 1508.45,332 1509,332 C 1509.55,332 1510,332.45 1510,333 C 1510,333.55 1509.55,334 1509,334 C 1508.45,334 1508,333.55 1508,333 z M 1511.1767,323.44718 C 1511.6289,321.27507 1513.4037,321.14216 1513.8096,323.25 C 1514.0204,324.3446 1513.53,325 1512.5,325 C 1511.5393,325 1510.988,324.35316 1511.1767,323.44718 z M 1568,289 C 1568,288.45 1568.7016,288 1569.559,288 C 1570.4165,288 1570.8399,288.45 1570.5,289 C 1570.1601,289.55 1569.4585,290 1568.941,290 C 1568.4234,290 1568,289.55 1568,289 z M 1191,287.44098 C 1191,286.58352 1191.4573,286.16462 1192.0163,286.51008 C 1192.5753,286.85554 1192.7737,287.5571 1192.4573,288.0691 C 1191.6001,289.45614 1191,289.19751 1191,287.44098 z M 1508,227.5 C 1508,226.675 1508.675,226 1509.5,226 C 1510.325,226 1511,226.675 1511,227.5 C 1511,228.325 1510.325,229 1509.5,229 C 1508.675,229 1508,228.325 1508,227.5 z"
     style="fill:#ffffff;fill-opacity:1"
     inkscape:export-xdpi="90"
     inkscape:export-ydpi="90" />
</svg>
