<?xml version="1.0" encoding="UTF-8" standalone="no"?>
<!-- Created with Inkscape (http://www.inkscape.org/) -->
<svg
   xmlns:dc="http://purl.org/dc/elements/1.1/"
   xmlns:cc="http://creativecommons.org/ns#"
   xmlns:rdf="http://www.w3.org/1999/02/22-rdf-syntax-ns#"
   xmlns:svg="http://www.w3.org/2000/svg"
   xmlns="http://www.w3.org/2000/svg"
   xmlns:sodipodi="http://sodipodi.sourceforge.net/DTD/sodipodi-0.dtd"
   xmlns:inkscape="http://www.inkscape.org/namespaces/inkscape"
   id="svg2"
   sodipodi:version="0.32"
   inkscape:version="0.46"
   width="1008"
   height="1044"
   version="1.0"
   sodipodi:docname="map4back.svg"
   inkscape:export-filename="/home/duncan/programming/coffeeworlds/data/map4back.png.png"
   inkscape:export-xdpi="90"
   inkscape:export-ydpi="90"
   inkscape:output_extension="org.inkscape.output.svg.inkscape">
  <metadata
     id="metadata7">
    <rdf:RDF>
      <cc:Work
         rdf:about="">
        <dc:format>image/svg+xml</dc:format>
        <dc:type
           rdf:resource="http://purl.org/dc/dcmitype/StillImage" />
      </cc:Work>
    </rdf:RDF>
  </metadata>
  <defs
     id="defs5">
    <inkscape:perspective
       sodipodi:type="inkscape:persp3d"
       inkscape:vp_x="0 : 526.18109 : 1"
       inkscape:vp_y="0 : 1000 : 0"
       inkscape:vp_z="744.09448 : 526.18109 : 1"
       inkscape:persp3d-origin="372.04724 : 350.78739 : 1"
       id="perspective9" />
  </defs>
  <sodipodi:namedview
     inkscape:window-height="798"
     inkscape:window-width="1056"
     inkscape:pageshadow="2"
     inkscape:pageopacity="0.0"
     guidetolerance="10.0"
     gridtolerance="10.0"
     objecttolerance="10.0"
     borderopacity="1.0"
     bordercolor="#666666"
     pagecolor="#ffffff"
     id="base"
     showgrid="false"
     inkscape:zoom="2"
     inkscape:cx="974.05275"
     inkscape:cy="968.14394"
     inkscape:window-x="228"
     inkscape:window-y="23"
     inkscape:current-layer="svg2" />
  <path
     style="fill:#b49674;stroke:#2e9674;stroke-opacity:1;stroke-width:5.9;stroke-miterlimit:4;stroke-dasharray:none"
     d="M 0.25267494,784.74988 L 0.50457494,525.49988 L 13.717955,525.75258 C 25.751875,525.98268 27.020725,525.83828 27.932765,524.13408 C 28.483555,523.10488 28.708685,522.03738 28.433055,521.76168 C 28.157425,521.48608 27.882045,515.12298 27.821105,507.62158 C 27.676565,489.82939 27.329775,490.25462 42.042625,490.18328 C 48.060755,490.1541 53.335535,489.91339 53.764365,489.64835 C 54.193195,489.38332 54.479825,477.9915 54.401325,464.33319 L 54.258595,439.4999 L 42.633855,439.21818 C 31.489745,438.94812 30.941555,438.83336 29.375085,436.44263 C 28.351315,434.88015 27.696895,431.62417 27.622815,427.72434 L 27.504575,421.4999 L 14.004575,421.47086 L 0.50457494,421.44183 L 0.25224494,210.72086 L -9.5061e-05,-9.7599e-05 L 367.86358,-9.7599e-05 L 735.72727,-9.7599e-05 L 735.25517,2.4693624 C 734.99557,3.8275723 734.15797,5.4576724 733.39387,6.0918124 C 731.39007,7.7547924 731.66337,13.381142 733.84377,15.354372 C 735.40737,16.769462 738.43837,17.037432 754.07497,17.143092 L 772.46697,17.267372 L 776.48577,21.598582 L 780.50457,25.929792 L 799.89907,26.144952 L 819.29357,26.360112 L 821.89907,23.430002 C 824.36337,20.658702 824.49937,19.944392 824.40797,10.249902 L 824.31127,-9.7599e-05 L 916.15797,-9.7599e-05 L 1008.0046,-9.7599e-05 L 1008.0046,521.99988 L 1008.0046,1044 L 729.50457,1044 L 451.00457,1044 L 450.82957,1041.25 C 450.46547,1035.5295 451.20677,1030.4472 452.61627,1029 C 453.64507,1027.9437 456.18487,1027.5 461.20287,1027.5 L 468.32847,1027.5 L 468.22107,1011 L 468.11367,994.49988 L 451.98427,994.22478 L 435.85487,993.94968 L 436.15607,996.24838 C 436.54797,999.23858 432.78197,1003 429.39617,1003 C 427.16417,1003 426.87207,1003.3361 427.37247,1005.3295 C 427.82477,1007.1316 427.27537,1008.163 424.94557,1009.8855 C 422.46687,1011.7181 421.16167,1011.9961 417.56807,1011.4573 C 409.30537,1010.2182 409.48017,1009.8514 409.68867,1027.9878 L 409.87277,1044 L 204.93676,1044 L 0.000764939,1044 L 0.25267494,784.74988 z M 541.50457,1030 C 541.84447,1029.45 541.42107,1029 540.56357,1029 C 539.70617,1029 539.00457,1029.45 539.00457,1030 C 539.00457,1030.55 539.42797,1031 539.94557,1031 C 540.46307,1031 541.16467,1030.55 541.50457,1030 z M 593.00457,1012.0841 C 593.00457,1011.1481 593.66527,1009.5088 594.47277,1008.4411 C 596.97697,1005.1303 596.36087,1001.3899 592.90607,998.92978 C 589.93797,996.81628 589.66367,996.79208 586.38807,998.35408 C 582.16077,1000.37 580.22747,1004.0812 581.74947,1007.2585 C 582.34007,1008.4913 583.07487,1010.2875 583.38247,1011.25 C 583.71617,1012.294 584.93927,1013 586.41417,1013 C 587.77397,1013 589.15247,1013.4303 589.47757,1013.9563 C 590.37617,1015.4103 593.00457,1014.0151 593.00457,1012.0841 z M 586.57597,1007.4286 C 584.65047,1005.5031 584.56837,1003.6069 586.34657,1002.1311 C 587.97127,1000.7828 589.07807,1001.645 588.30577,1003.6574 C 587.94847,1004.5885 588.52577,1005.3235 589.89577,1005.6818 C 591.59177,1006.1253 591.80487,1006.5357 590.90317,1007.6221 C 589.42707,1009.4007 588.50697,1009.3596 586.57597,1007.4286 z M 500.79767,1002.1639 C 500.44857,1000.3512 493.98237,998.66388 492.59697,1000.0242 C 491.35537,1001.2431 493.61427,1003.7927 496.32717,1004.2345 C 499.48187,1004.7483 501.14677,1003.9771 500.79767,1002.1639 z M 544.66877,994.43268 C 545.49597,992.27698 544.12967,991.22198 540.00457,990.83138 C 537.08507,990.55488 536.50457,990.82418 536.50457,992.45478 C 536.50457,993.68798 537.42757,994.66648 539.00457,995.10518 C 543.00937,996.21908 544.02967,996.09798 544.66877,994.43268 z M 356.95153,987.56378 C 357.8362,986.49788 357.85869,985.59578 357.03879,984.06378 C 355.63544,981.44168 354.37136,981.44608 352.96276,984.07808 C 350.87353,987.98178 354.19538,990.88478 356.95153,987.56378 z M 444.77537,985.18738 C 444.99307,984.53428 444.45877,983.99988 443.58787,983.99988 C 442.71707,983.99988 442.00457,984.71238 442.00457,985.58328 C 442.00457,987.34918 444.15737,987.04158 444.77537,985.18738 z M 497.77537,985.18738 C 497.99307,984.53428 497.45877,983.99988 496.58787,983.99988 C 495.71707,983.99988 495.00457,984.71238 495.00457,985.58328 C 495.00457,987.34918 497.15737,987.04158 497.77537,985.18738 z M 526.38737,984.93798 C 526.87287,984.49598 526.99527,983.41808 526.65927,982.54258 C 526.21057,981.37318 525.31297,981.12418 523.27657,981.60448 C 519.66337,982.45648 518.59907,983.50078 519.34987,985.45728 C 519.79857,986.62668 520.69617,986.87558 522.73257,986.39538 C 524.25717,986.03588 525.90187,985.38008 526.38737,984.93798 z M 410.00457,984.69988 C 410.00457,983.02758 407.97687,980.99988 406.30457,980.99988 C 404.64107,980.99988 404.59877,984.66948 406.25457,985.33758 C 408.54527,986.26198 410.00457,986.01378 410.00457,984.69988 z M 471.50457,981.49988 C 471.50457,980.94988 470.49207,980.35608 469.25457,980.18038 C 467.70637,979.96048 467.00457,980.37208 467.00457,981.49988 C 467.00457,982.62768 467.70637,983.03938 469.25457,982.81948 C 470.49207,982.64368 471.50457,982.04988 471.50457,981.49988 z M 521.21077,936.88858 L 521.13827,899.27718 L 523.91997,897.22058 C 526.25537,895.49398 528.09077,895.18008 535.35937,895.26458 C 544.81097,895.37448 546.74037,894.34648 547.11717,888.99988 C 547.83057,878.87528 547.55547,818.84038 546.79347,818.36948 C 546.27877,818.05138 539.25327,817.80778 531.18117,817.82808 C 517.60717,817.86228 516.33557,817.70678 514.25457,815.75818 C 512.44967,814.06808 512.00457,812.56398 512.00457,808.15438 C 512.00457,800.35858 513.50647,798.99988 522.12437,798.99988 C 527.75107,798.99988 529.10797,798.67528 529.93417,797.13138 C 530.48417,796.10368 530.69707,795.02568 530.40717,794.73578 C 530.11727,794.44598 529.83367,784.46888 529.77687,772.56448 C 529.68077,752.42018 529.81167,750.73528 531.66517,748.25268 C 533.48097,745.82068 534.26767,745.58148 540.58067,745.54258 C 547.31167,745.50108 547.51307,745.42618 547.81097,742.85388 C 548.35587,738.14838 551.35417,736.48008 558.59677,736.85248 C 562.12107,737.03378 565.02197,736.80358 565.04327,736.34098 C 565.06467,735.87838 565.14807,728.29988 565.22867,719.49988 L 565.37527,703.49988 L 544.43997,702.99988 L 523.50457,702.49988 L 522.35127,698.99988 C 520.56597,693.58228 520.74177,680.33058 522.63737,677.43758 L 524.21917,675.02348 L 562.36187,674.76168 L 600.50457,674.49988 L 600.50457,668.35598 C 600.50457,664.09938 601.00577,661.64198 602.13627,660.35598 C 603.03377,659.33518 604.10127,657.37488 604.50867,655.99988 C 605.85927,651.44138 606.50347,651.23008 619.12387,651.20648 C 629.40167,651.18718 631.45357,651.44888 632.97817,652.97348 C 634.62627,654.62158 634.75737,657.20168 634.63617,685.60208 L 634.50457,716.44108 L 636.84347,719.22048 L 639.18237,721.99988 L 808.93847,721.99988 C 969.35887,721.99988 978.77907,721.90368 980.23127,720.24988 C 983.01717,717.07728 983.28427,714.18848 981.11587,710.67998 C 979.11577,707.44378 979.08207,706.05298 979.03977,625.13668 C 979.01007,568.38858 979.32957,542.26128 980.07007,540.87758 C 981.42207,538.35128 979.71887,535.99988 976.53707,535.99988 C 973.81577,535.99988 971.30307,533.35098 970.84577,529.99988 C 970.60157,528.21058 969.79387,527.40288 968.00457,527.15868 C 964.89887,526.73488 961.89277,524.14758 962.08797,522.06618 C 962.48607,517.82108 962.42467,517.79908 951.08657,518.13498 C 941.51787,518.41838 939.91137,518.22548 938.08657,516.57418 C 936.94147,515.53778 936.00457,513.66498 936.00457,512.41228 C 936.00457,511.10818 935.25657,509.91208 934.25457,509.61398 C 933.29207,509.32758 926.09527,509.14478 918.26157,509.20788 C 898.56077,509.36648 899.84777,511.03618 900.21567,485.79701 C 900.46237,468.86723 900.28567,465.91161 899.00457,465.54315 C 898.17957,465.30587 885.31787,465.14661 870.42307,465.18924 C 836.48257,465.28638 838.47937,466.1135 838.19077,451.83836 C 838.00367,442.58368 838.18497,441.43676 840.16897,439.32488 C 841.37027,438.04614 843.22787,436.9999 844.29687,436.9999 C 845.36587,436.9999 847.71917,435.70165 849.52637,434.11491 L 852.81217,431.22992 L 915.52267,431.22286 C 977.40597,431.21589 978.26017,431.18876 980.28327,429.16569 C 982.22747,427.22148 982.34147,425.86765 982.49027,402.95945 C 982.63317,380.94191 982.47857,378.48884 980.74317,375.25108 C 979.35397,372.65908 978.92927,370.18519 979.17197,366.09937 C 979.48807,360.77741 979.38067,360.48317 977.00457,360.16224 C 973.62407,359.70564 970.02947,356.19736 970.29117,353.60996 C 970.45327,352.00741 969.99707,351.55123 968.39447,351.71331 C 967.23397,351.83069 965.26757,350.84434 964.02477,349.52142 L 961.76517,347.11612 L 965.13487,345.05165 C 968.16057,343.19793 969.91137,343.00739 982.28517,343.18513 C 1001.4863,343.46095 1000.3378,345.02254 1000.37,318.59632 C 1000.3925,300.12255 1000.2139,297.88862 998.56898,296.07105 C 996.91408,294.24242 996.73188,291.77898 996.62378,269.77665 L 996.50458,245.4999 L 984.84937,245.21898 C 973.87747,244.95454 973.10397,244.80055 971.65737,242.5927 C 970.31237,240.53998 970.12447,231.77832 970.15177,172.37362 L 970.18297,104.4999 L 963.64487,104.45108 C 958.85277,104.4153 956.58617,103.93123 955.15767,102.63849 C 953.24907,100.9112 951.84487,94.762412 952.77667,92.212652 C 953.84687,89.284322 960.09337,88.000162 973.37667,87.977672 C 984.64777,87.958572 986.84887,87.690772 988.93907,86.084182 L 991.37358,84.212932 L 991.38808,55.083192 C 991.40198,27.202142 991.31618,25.867052 989.38718,23.938002 C 987.40347,21.954362 986.23067,21.922742 915.05457,21.933722 C 851.42127,21.943542 842.45337,22.131082 840.37107,23.495452 C 839.06947,24.348252 838.00457,25.678492 838.00457,26.451532 C 838.00457,30.649392 837.02427,30.747372 794.40137,30.809432 C 756.44707,30.864702 753.56867,30.991612 751.87927,32.684302 C 750.41317,34.153262 749.98487,36.600092 749.63597,45.499902 C 749.24657,55.430522 749.41317,56.840162 751.34977,59.999902 C 753.14587,62.930452 753.49567,65.045562 753.49967,72.999902 C 753.50417,81.772882 753.31547,82.688962 751.03417,84.970332 C 748.67447,87.330042 748.09397,87.427042 738.08187,87.134772 C 726.47137,86.795842 725.59727,86.335302 724.53977,79.999902 C 723.64267,74.625572 723.52847,39.579322 724.40337,38.163612 C 724.82877,37.475382 724.63287,36.257002 723.96827,35.456102 C 723.04767,34.346852 720.20497,33.999902 712.03707,33.999902 C 698.60627,33.999902 697.58287,33.238592 697.47567,23.168152 L 697.40477,16.499902 L 650.45467,16.499902 L 603.50457,16.499902 L 603.16337,18.999902 C 602.45027,24.225362 600.62497,24.999902 589.02387,24.999902 C 579.09967,24.999902 578.19787,24.834592 576.13327,22.636862 C 574.91227,21.337182 573.98707,19.874682 574.07737,19.386862 C 574.70617,15.987682 574.50977,15.969352 540.32507,16.236602 L 506.64547,16.499902 L 506.68657,58.205632 L 506.72777,99.911358 L 504.29257,102.19903 C 502.02727,104.32724 501.14807,104.46346 491.68107,104.1531 C 475.98587,103.63857 477.11167,106.40459 477.04897,68.203602 C 477.00177,39.501462 477.15477,36.491332 478.75087,34.727402 C 480.12077,33.213382 480.49487,31.059572 480.46037,24.886052 C 480.40487,14.959952 479.37007,13.696122 470.72807,12.999902 C 465.25077,12.558632 464.37477,12.191932 463.26997,9.878022 C 460.66727,4.4264524 466.35297,4.7104024 359.51993,4.6967124 C 283.68655,4.6869924 259.74733,4.9685124 258.64549,5.8829523 C 257.85092,6.5423924 256.9248,8.1816323 256.58746,9.5256923 C 256.23522,10.929152 255.02279,12.201542 253.73935,12.514672 C 252.51023,12.814552 238.01046,12.933902 221.51764,12.779902 L 191.5307,12.499902 L 190.27448,9.878022 C 188.12346,5.3885924 186.78915,4.9377724 175.10012,4.7510424 C 160.1051,4.5115124 159.82437,4.7794724 159.59195,19.554322 C 159.44955,28.605972 159.73651,30.879242 161.40341,33.904822 C 163.09626,36.977492 163.39283,39.493922 163.44433,51.222112 C 163.52386,69.334192 163.53255,69.323722 148.4661,69.269412 C 132.98976,69.213622 133.6652,70.323312 133.56753,44.792422 C 133.52483,33.631532 133.773,23.083102 134.11902,21.351462 C 134.46504,19.619822 134.43958,17.703742 134.06244,17.093522 C 133.56963,16.296142 116.52544,16.056582 73.476405,16.241962 L 13.576085,16.499902 L 13.529195,48.999902 C 13.485135,79.544842 13.362675,81.711572 11.493445,85.018532 C 9.5779848,88.407282 9.5075648,90.397022 9.5855648,138.92478 L 9.6665648,189.3124 L 12.400465,191.66401 C 14.496655,193.46707 14.968885,194.53698 14.424955,196.25076 C 14.034775,197.4801 13.668075,217.83907 13.610055,241.49291 C 13.508215,283.01347 13.433395,284.62087 11.445185,287.9999 C 9.4567149,291.37938 9.3922149,292.76876 9.5720048,328.34894 C 9.7521148,363.99278 9.8250149,365.26479 11.800955,367.24073 C 13.833375,369.27315 14.413965,369.28366 126.57172,369.31856 L 239.29972,369.35364 L 241.15215,367.06599 C 242.67279,365.18807 243.00458,363.02902 243.00458,355.01156 C 243.00458,343.57644 243.46265,342.88913 250.86905,343.21138 C 255.00579,343.39138 256.43991,343.00902 258.18922,341.2597 C 260.2066,339.24233 260.36983,338.07455 260.43466,325.1956 C 260.51127,309.97748 261.15041,307.9999 265.99217,307.9999 C 267.50065,307.9999 269.88792,308.9069 271.29722,310.01545 C 273.78886,311.97538 273.85912,312.35481 273.84338,323.76545 C 273.83447,330.2194 273.86709,336.10254 273.91588,336.8391 C 273.96466,337.57565 275.97008,340.08854 278.37235,342.42328 L 282.74012,346.66826 L 282.80463,355.40625 C 282.85052,361.62257 283.32821,364.84488 284.45991,366.57207 C 286.24161,369.29129 286.45009,369.31287 309.49017,369.16305 C 322.75756,369.07678 327.00458,370.09642 327.00458,373.36797 C 327.00458,374.09504 327.84877,375.4539 328.88055,376.38766 C 330.48676,377.84126 333.47063,378.11519 349.63055,378.29265 C 367.77014,378.49184 368.63513,378.59301 371.85955,380.89274 C 374.98729,383.12351 375.17032,383.56198 374.56193,387.36661 C 373.27898,395.38973 375.39835,394.9999 333.06228,394.9999 L 295.42996,394.9999 L 295.46727,410.41847 C 295.5024,424.93428 295.37633,425.97362 293.31412,428.16954 C 291.26049,430.35635 290.45495,430.49108 280.4176,430.32667 C 265.99431,430.0904 265.81982,429.91365 265.63925,415.35679 L 265.50458,404.4999 L 223.00803,404.4999 L 180.51149,404.4999 L 180.84355,414.9999 C 181.1626,425.08822 181.07847,425.59098 178.69801,427.82284 L 176.2204,430.14578 L 134.46694,430.32284 L 92.713475,430.4999 L 92.609025,477.76183 C 92.517965,518.96408 92.696965,525.08478 94.005155,525.50008 C 94.830485,525.76198 101.91102,525.83278 109.73967,525.65718 C 128.01012,525.24748 127.85392,525.12828 127.87449,539.49708 C 127.89652,554.88278 132.1143,553.57158 83.298145,553.35548 C 60.861675,553.25618 41.829575,553.35508 41.004575,553.57528 C 39.696125,553.92458 39.504575,560.47658 39.504575,604.88238 C 39.504575,651.96148 39.372995,655.93458 37.754575,657.72328 C 35.004445,660.76278 35.284175,672.60418 38.178885,675.68548 C 40.347565,677.99388 40.423175,677.99988 67.357885,677.99988 C 101.30955,677.99988 102.39199,678.30698 101.70545,687.74298 C 101.24009,694.13898 100.63324,694.24498 63.738555,694.37948 L 30.680525,694.49988 L 30.892715,732.49988 C 31.009415,753.39988 31.446205,770.84128 31.863365,771.25858 C 32.280525,771.67578 57.345445,771.90078 87.563205,771.75858 L 142.50458,771.49988 L 142.81097,768.85388 C 143.1792,765.67378 146.34536,762.57288 149.26737,762.53058 C 151.30511,762.50108 151.37749,762.10238 151.11895,752.33278 C 150.90223,744.14308 151.17905,741.66328 152.54225,739.58278 L 154.2346,736.99988 L 169.94528,736.99988 C 185.35414,736.99988 185.70047,737.04728 187.97348,739.46678 C 189.98643,741.60948 190.21159,742.60418 189.68674,747.03578 C 189.3544,749.84188 188.13332,753.67358 186.97324,755.55058 C 184.78517,759.09098 184.93162,759.97758 188.32766,763.74988 C 189.87078,765.46398 191.44955,765.99988 194.95639,765.99988 C 199.78117,765.99988 204.00458,768.11488 204.00458,770.53088 C 204.00458,771.31058 205.33223,772.63508 206.95492,773.47418 C 209.41649,774.74718 215.12838,774.99988 241.43337,774.99988 L 272.96148,774.99988 L 279.98303,768.15708 C 286.83066,761.48378 287.00458,761.19038 287.00458,756.31208 C 287.00458,747.93178 285.86857,748.19458 321.82244,748.25558 C 359.77609,748.31988 357.28041,749.26938 357.41658,734.71358 C 357.47637,728.32248 357.94456,724.77668 358.87702,723.65338 C 360.0601,722.22808 362.72102,721.99988 378.16221,721.99988 C 392.96746,721.99988 396.50254,721.71978 398.53976,720.38488 C 399.89541,719.49668 401.00457,718.21638 401.00457,717.53988 C 401.00457,716.86338 401.79207,715.60248 402.75457,714.73798 C 404.26237,713.38358 408.58097,713.16688 433.95817,713.17248 C 464.90067,713.17938 470.24977,713.84648 471.40997,717.84338 C 471.67447,718.75448 471.79347,728.80178 471.67437,740.17078 C 471.39367,766.96578 472.95867,764.99988 451.90857,764.99988 C 442.40227,764.99988 435.87537,765.39998 435.50097,766.00578 C 435.15907,766.55898 435.43717,768.55428 436.11907,770.43988 C 437.11897,773.20508 437.10737,774.17108 436.05917,775.43408 C 435.16067,776.51668 435.07367,777.38558 435.77707,778.24988 C 436.66917,779.34598 436.68397,788.68718 435.80507,795.99988 L 435.50457,798.49988 L 446.50457,798.50358 C 455.48277,798.50648 457.99787,798.84138 460.18857,800.32528 L 462.87247,802.14338 L 462.68857,842.96688 C 462.51537,881.39388 462.39407,883.91248 460.62197,885.87048 C 458.89167,887.78218 457.47817,887.97268 443.15147,888.22518 L 427.56357,888.49988 L 427.57007,904.99988 L 427.57657,921.49988 L 438.25777,921.54478 C 448.10407,921.58608 449.13727,921.77598 451.47677,923.97378 L 454.01457,926.35788 L 453.75957,950.17928 C 453.59717,965.35448 453.86757,974.15598 454.50457,974.42828 C 455.05457,974.66348 470.30477,974.77578 488.39387,974.67788 L 521.28327,974.49988 L 521.21077,936.88858 z M 247.51182,694.25498 C 238.74233,693.57968 239.0478,694.75288 239.14453,662.11988 L 239.22935,633.49988 L 205.36697,633.49988 C 171.56803,633.49988 171.50498,633.50388 171.71616,635.59958 C 171.83926,636.82118 170.68914,638.88598 168.96616,640.53668 L 166.00458,643.37408 L 163.043,640.53668 C 161.32002,638.88598 160.1699,636.82118 160.293,635.59958 C 160.50243,633.52128 160.2148,633.49478 132.00458,632.99988 C 98.401255,632.41038 99.143555,632.62418 98.297145,623.28988 C 97.411625,613.52418 94.800555,614.01398 149.22133,613.73608 L 195.46627,613.49988 L 195.14873,597.99988 C 194.83825,582.84398 194.88307,582.45188 197.16789,580.33758 C 199.23688,578.42308 200.65021,578.17408 209.50458,578.16428 C 215.00458,578.15828 220.01602,578.11878 220.64112,578.07658 C 221.46259,578.02118 221.76544,570.09408 221.73354,549.48208 C 221.69043,521.61828 221.73888,520.91158 223.84644,518.66828 C 225.7544,516.63728 226.72514,516.42128 232.25402,516.79728 C 236.71736,517.10078 239.13863,517.80348 240.72207,519.25488 C 242.84509,521.20088 242.9303,521.93098 242.72207,536.39368 L 242.50458,551.49988 L 257.96908,551.77708 C 272.3641,552.03518 273.59879,552.20808 275.8224,554.27708 C 277.92643,556.23488 278.14768,557.12798 277.67829,561.76798 C 277.38517,564.66538 276.18816,568.58478 275.01826,570.47778 C 272.72896,574.18198 273.07706,575.94558 276.7544,579.27348 C 278.55343,580.90158 283.11169,581.02808 341.59702,581.07288 C 376.19618,581.09948 406.81727,581.09388 409.64377,581.06048 C 417.00967,580.97368 419.51427,578.71718 419.23997,572.41508 C 419.11667,569.58208 419.62187,566.70668 420.47057,565.41148 C 421.81707,563.35648 422.67417,563.21268 433.70747,563.19018 C 448.63487,563.15978 450.00457,563.84548 450.00457,571.34868 C 450.00457,575.63348 450.45927,577.07838 452.37337,578.87668 L 454.74217,581.10208 L 502.62337,581.08718 C 548.60957,581.07278 555.56247,581.44778 558.43097,584.09708 C 559.81697,585.37708 556.23257,588.83668 553.15067,589.19348 C 551.12967,589.42748 550.55567,590.00208 550.72077,591.62558 C 550.83967,592.79458 550.00487,594.59458 548.86577,595.62558 C 546.86767,597.43368 542.97547,597.49988 438.66377,597.49988 L 330.53291,597.49988 L 330.51875,608.64488 C 330.4975,625.36198 333.79468,623.99988 293.34959,623.99988 C 267.35355,623.99988 259.99908,624.27538 259.97963,625.24988 C 259.96591,625.93738 259.95653,640.98708 259.95878,658.69368 L 259.96287,690.88758 L 257.34887,692.94368 C 255.91116,694.07458 254.23305,694.91878 253.61972,694.81968 C 253.00639,694.72048 250.25784,694.46638 247.51182,694.25498 z M 171.77541,624.18738 C 171.99312,623.53428 171.45875,622.99988 170.58791,622.99988 C 169.71708,622.99988 169.00458,623.71238 169.00458,624.58328 C 169.00458,626.34918 171.15734,626.04158 171.77541,624.18738 z M 268.50458,615.99988 C 268.8445,615.44988 268.42106,614.99988 267.5636,614.99988 C 266.70614,614.99988 266.00458,615.44988 266.00458,615.99988 C 266.00458,616.54988 266.42802,616.99988 266.94556,616.99988 C 267.4631,616.99988 268.16466,616.54988 268.50458,615.99988 z M 242.50458,611.49988 C 242.50458,610.94988 241.49208,610.35608 240.25458,610.18038 C 238.70641,609.96048 238.00458,610.37208 238.00458,611.49988 C 238.00458,612.62768 238.70641,613.03938 240.25458,612.81948 C 241.49208,612.64368 242.50458,612.04988 242.50458,611.49988 z M 304.82861,607.70188 C 305.01622,606.71298 304.59842,605.21548 303.90014,604.37408 C 302.78081,603.02538 302.41861,603.11978 300.8398,605.17208 C 298.20735,608.59408 298.51854,610.18888 301.74603,609.81628 C 303.43123,609.62178 304.61891,608.80718 304.82861,607.70188 z M 224.5457,598.93338 C 225.46604,597.44418 224.39897,596.63458 222.48433,597.36928 C 221.60075,597.70838 221.1579,598.43898 221.50021,598.99288 C 222.31079,600.30438 223.71532,600.27698 224.5457,598.93338 z M 243.00458,588.62238 C 243.00458,586.58318 240.27141,584.68358 238.3812,585.40888 C 236.87131,585.98828 236.8833,586.20838 238.52345,588.02078 C 240.59212,590.30658 243.00458,590.63048 243.00458,588.62238 z M 253.50458,588.06348 C 253.50458,586.24148 247.13606,584.46838 245.71083,585.89368 C 245.01551,586.58898 245.11161,587.42398 246.01179,588.50858 C 247.66133,590.49618 253.50458,590.14908 253.50458,588.06348 z M 427.00457,585.49988 C 427.00457,583.91068 423.49227,583.40178 422.59077,584.86038 C 421.85227,586.05528 422.99157,586.99988 425.17127,586.99988 C 426.17957,586.99988 427.00457,586.32488 427.00457,585.49988 z M 497.25457,585.49988 C 496.88557,584.02368 493.74307,584.28438 493.22657,585.83408 C 492.92167,586.74868 493.52427,587.06318 495.14317,586.83408 C 496.44197,586.65028 497.39207,586.04988 497.25457,585.49988 z M 813.49827,621.34998 C 812.01357,619.08398 811.75617,616.04238 811.72157,600.35738 C 811.68667,584.46598 811.90827,581.76378 813.37987,580.13768 C 814.97497,578.37508 817.06987,578.25998 847.74357,578.24968 C 878.94257,578.23918 880.53107,578.32928 883.13707,580.25598 L 885.86557,582.27328 L 885.63697,600.88658 C 885.48327,613.39578 885.00257,620.23778 884.17127,621.74988 L 882.93417,623.99988 L 849.08437,623.99988 L 815.23457,623.99988 L 813.49827,621.34998 z M 870.50457,614.50968 C 870.50457,613.09238 869.64107,612.35458 867.50457,611.94648 C 865.85457,611.63138 863.94207,611.56258 863.25457,611.79368 C 861.22527,612.47588 861.82487,614.99058 864.25457,615.98758 C 867.75957,617.42578 870.50457,616.77668 870.50457,614.50968 z M 832.95157,608.56378 C 834.23737,607.01448 832.82567,602.99988 830.99507,602.99988 C 829.76467,602.99988 826.89907,608.56108 827.71117,609.37308 C 828.82517,610.48718 831.72717,610.03898 832.95157,608.56378 z M 849.50457,606.99988 C 849.84447,606.44988 849.64607,605.99988 849.06357,605.99988 C 848.48117,605.99988 848.00457,606.44988 848.00457,606.99988 C 848.00457,607.54988 848.20297,607.99988 848.44557,607.99988 C 848.68807,607.99988 849.16467,607.54988 849.50457,606.99988 z M 823.50897,585.99288 C 824.30327,584.70768 821.49437,583.59798 819.44117,584.38588 C 817.43747,585.15478 818.54097,586.99988 821.00457,586.99988 C 822.03967,586.99988 823.16667,586.54668 823.50897,585.99288 z M 663.58327,586.47968 C 662.20577,584.37728 661.99567,579.85468 662.05057,553.47608 L 662.11417,522.90878 L 664.46217,522.01598 C 665.75367,521.52498 667.09297,520.66588 667.43847,520.10688 C 667.80707,519.51038 672.24167,519.15078 678.17147,519.23658 C 687.60147,519.37288 688.40077,519.22888 690.14037,517.08048 C 691.32267,515.62038 692.03277,513.08138 692.08177,510.13908 C 692.12427,507.58758 692.25907,500.9999 692.38137,495.4999 C 692.56927,487.05048 692.29337,484.96577 690.60227,482.05519 C 689.17477,479.59828 688.58697,476.7307 688.55267,472.05519 L 688.50457,465.4999 L 681.99667,465.47618 C 677.54027,465.45994 674.72927,464.92051 673.07947,463.76491 L 670.67017,462.07736 L 670.58737,437.32749 L 670.50457,412.57761 L 632.78367,412.64962 C 588.84107,412.73351 591.81697,413.48359 591.62227,402.27497 L 591.50457,395.4999 L 579.77287,395.21832 C 568.85167,394.9562 567.95387,394.78347 566.77747,392.71832 C 565.54177,390.54887 565.35517,389.92028 565.11997,387.1334 C 565.03127,386.08311 563.49697,385.8629 558.48947,386.18176 C 552.67467,386.55202 551.73977,386.34693 549.79217,384.27384 C 547.83557,382.19111 547.59717,380.79101 547.48537,370.72549 C 547.41677,364.55141 547.55837,358.47138 547.79997,357.21429 C 548.78807,352.07355 548.35827,352.09757 638.74067,352.1302 L 722.47197,352.16044 L 724.98827,349.33017 L 727.50457,346.4999 L 727.40667,311.67291 C 727.32027,280.95451 727.49997,276.60974 728.92977,274.84396 C 730.43477,272.9853 731.75187,272.84201 747.33017,272.84201 C 758.92157,272.84201 764.55697,273.21346 765.55697,274.0434 C 766.63847,274.94092 767.00457,277.69902 767.00457,284.94803 C 767.00457,299.81183 765.37907,299.07823 798.47107,299.14901 C 829.76547,299.21594 829.15527,299.02981 828.74287,308.38266 C 828.55657,312.6097 828.94077,314.27107 830.50457,316.00024 C 832.21837,317.89525 832.50417,319.61303 832.50167,328.00406 C 832.49737,342.25438 832.85317,341.9999 812.93297,341.9999 C 796.40807,341.9999 795.16457,342.34737 797.24617,346.38316 C 798.64157,349.08839 797.32727,355.67719 794.91017,358.09429 C 792.94607,360.0584 791.64917,360.16894 768.67707,360.33022 L 744.51027,360.4999 L 744.50737,366.64409 C 744.50307,376.13471 743.43297,376.8735 729.18997,377.21927 L 717.62987,377.4999 L 717.84547,396.70092 C 718.03637,413.71267 717.85057,416.2945 716.21567,419.3449 C 714.53677,422.47729 714.38037,425.36976 714.48177,451.41046 C 714.58867,478.84945 714.67797,480.11779 716.64217,482.08197 C 718.57637,484.01614 719.97407,484.14122 741.59787,484.31539 C 769.18317,484.53758 770.33487,484.85487 770.81367,492.36374 C 771.36367,500.9896 771.64497,500.90317 743.38457,500.79294 C 729.95847,500.74057 718.67317,500.99795 718.30627,501.36491 C 717.93927,501.73186 717.73097,506.63738 717.84327,512.26598 C 718.14777,527.51858 718.45127,527.28088 698.51507,527.40318 L 682.76547,527.49988 L 682.75207,547.63018 C 682.74457,558.70178 683.02277,568.22028 683.37017,568.78238 C 683.77367,569.43538 692.66307,569.78048 707.99337,569.73828 C 730.27157,569.67698 732.13667,569.80898 734.10747,571.58608 C 735.94907,573.24658 736.16057,574.27068 735.70537,579.32378 C 734.79097,589.47588 736.83907,588.94758 698.46177,588.93058 L 665.17957,588.91588 L 663.58327,586.47968 z M 674.42277,580.39288 C 676.31977,579.66498 676.55487,575.99988 674.70457,575.99988 C 673.98957,575.99988 672.86457,576.53988 672.20457,577.19988 C 669.63167,579.77278 670.98027,581.71398 674.42277,580.39288 z M 709.64787,493.48717 C 709.96707,492.65516 709.66347,491.29381 708.97307,490.46194 C 707.85757,489.11779 707.51117,489.13646 705.86117,490.62966 C 704.84007,491.55378 704.00457,492.91513 704.00457,493.65489 C 704.00457,495.51668 708.92517,495.37043 709.64787,493.48717 z M 717.25457,488.4999 C 716.88557,487.02372 713.74307,487.2844 713.22657,488.83405 C 712.92167,489.74871 713.52427,490.06313 715.14317,489.83405 C 716.44197,489.65027 717.39207,489.0499 717.25457,488.4999 z M 683.67267,414.42236 C 684.00567,413.55471 683.52007,412.09221 682.59357,411.17236 C 681.01827,409.6082 680.78777,409.65998 679.03507,411.97194 C 678.00437,413.33156 677.37737,414.79406 677.64177,415.22194 C 678.51407,416.63324 683.05537,416.03114 683.67267,414.42236 z M 632.50457,394.55815 C 632.50457,392.19788 627.31847,390.49452 625.28087,392.18555 C 623.44347,393.71048 624.17087,395.3079 627.07867,396.13347 C 630.76297,397.1795 632.50457,396.67385 632.50457,394.55815 z M 708.42277,389.39291 C 710.35287,388.65226 710.49247,385.64967 708.66717,384.13483 C 707.64577,383.28715 706.79397,383.59516 705.06237,385.43836 C 701.84447,388.86372 703.80117,391.1664 708.42277,389.39291 z M 579.50457,376.57185 C 579.50457,374.22291 574.32937,372.48549 572.31417,374.15791 C 570.40767,375.74014 570.70247,376.94038 573.25457,377.98758 C 576.71417,379.40713 579.50457,378.77504 579.50457,376.57185 z M 761.42277,345.39291 C 763.43677,344.62009 763.46467,341.62661 761.47327,339.97396 C 760.20717,338.92317 759.69327,339.03182 758.50517,340.60152 C 755.54927,344.50655 757.09927,347.05199 761.42277,345.39291 z M 823.55847,325.91277 C 824.58897,324.24535 822.27117,322.33326 820.89167,323.71277 C 819.73777,324.86669 820.45997,326.9999 822.00457,326.9999 C 822.48967,326.9999 823.18887,326.51069 823.55847,325.91277 z M 790.55847,324.91277 C 791.50367,323.38329 789.97767,322.14453 786.22337,321.39365 C 783.43917,320.83681 783.00457,321.02555 783.00457,322.79157 C 783.00457,325.71283 789.01997,327.40202 790.55847,324.91277 z M 744.55847,316.91277 C 745.58897,315.24535 743.27117,313.33326 741.89167,314.71277 C 740.73777,315.86669 741.45997,317.9999 743.00457,317.9999 C 743.48967,317.9999 744.18887,317.51069 744.55847,316.91277 z M 432.33727,527.26548 C 425.43647,526.77888 423.67857,524.27988 424.16127,515.64268 L 424.50457,509.49988 L 391.46812,509.39178 C 355.32271,509.27338 354.00458,509.07518 354.00458,503.75935 C 354.00458,501.11178 353.79173,500.99523 348.75458,500.88475 C 345.86708,500.82141 342.70172,500.8523 341.72045,500.95339 C 338.60457,501.27437 335.98685,497.02031 336.26011,492.07975 C 336.73062,483.57274 326.29627,484.22004 464.10147,484.14914 C 548.18847,484.10588 586.58037,484.41785 589.00457,485.16409 C 593.96477,486.69099 594.65277,487.62612 592.53667,489.96439 C 590.78247,491.90278 589.34487,491.98568 553.11037,492.23802 L 515.50457,492.4999 L 515.50457,499.2291 C 515.50457,509.78628 517.12737,509.34978 477.57627,509.43148 L 444.50457,509.49988 L 444.84187,516.00968 C 445.14407,521.84218 444.91497,522.80458 442.63957,525.25968 C 441.24287,526.76678 439.51607,527.91668 438.80237,527.81488 C 438.08857,527.71318 435.17927,527.46598 432.33727,527.26548 z M 472.32887,493.5971 C 472.62497,492.82556 472.22277,491.36306 471.43527,490.3471 C 470.05817,488.57073 469.92677,488.59017 468.00927,490.85406 C 466.91257,492.14885 466.26447,493.61135 466.56897,494.10406 C 467.44567,495.52255 471.73487,495.14503 472.32887,493.5971 z M 479.25457,488.4999 C 478.88557,487.02372 475.74307,487.2844 475.22657,488.83405 C 474.92167,489.74871 475.52427,490.06313 477.14317,489.83405 C 478.44197,489.65027 479.39207,489.0499 479.25457,488.4999 z M 464.62987,310.7499 C 463.51987,308.99203 463.20637,303.90668 463.19637,287.4999 C 463.18937,275.9499 463.14337,265.72396 463.09407,264.77558 C 463.04487,263.8272 461.67697,262.3647 460.05427,261.52558 C 457.57287,260.24242 451.48477,259.9999 421.75427,259.9999 C 395.59339,259.9999 386.09265,259.68797 385.20458,258.7999 C 384.3102,257.90552 384.00458,247.13823 384.00458,216.52241 C 384.00458,182.91217 383.74983,175.0812 382.60319,173.44415 C 381.83242,172.34372 381.04492,170.3311 380.85319,168.97164 L 380.50458,166.4999 L 333.61751,166.4999 L 286.73043,166.4999 L 286.61693,186.14555 C 286.51388,203.98104 286.32756,205.98552 284.59488,207.90012 C 282.98468,209.67937 282.67214,211.66222 282.59546,220.58508 C 282.51809,229.58916 282.23433,231.35875 280.68637,232.49063 C 279.22308,233.56061 267.68534,233.81592 221.5789,233.79856 C 162.08951,233.77615 160.00458,233.91546 160.00458,237.91264 C 160.00458,241.49048 157.18173,242.49413 146.76864,242.61858 C 134.13565,242.76957 133.61347,243.20449 133.39065,253.7609 C 133.26568,259.68135 133.61235,261.93571 134.86594,263.35454 C 136.09076,264.74081 136.57825,267.65419 136.7963,274.89103 C 137.07704,284.20843 136.98985,284.66511 134.48013,287.02287 C 131.9994,289.3534 131.3513,289.4584 121.18841,289.17637 C 111.84066,288.91696 110.28436,288.62173 108.74361,286.81556 C 107.11367,284.90484 106.99158,281.319 107.10281,238.62557 L 107.22299,192.4999 L 91.743705,192.39761 C 70.640485,192.25816 71.763835,193.26164 71.754605,174.54155 C 71.748265,161.66677 71.968815,159.69689 73.621105,157.87113 C 74.909115,156.44789 75.521365,154.19079 75.579765,150.65031 C 75.694125,143.71824 75.768825,143.3785 77.576005,141.57133 C 79.577545,139.56978 83.923685,139.55452 86.757055,141.53908 C 88.756895,142.93983 88.941175,143.86177 88.805905,151.78908 C 88.659525,160.36739 89.441445,163.45773 92.374165,165.89167 C 93.513815,166.8375 111.43387,167.12305 170.5145,167.13683 C 241.84016,167.15346 247.30928,167.03413 249.09031,165.42232 C 250.14316,164.4695 251.00458,163.15441 251.00458,162.4999 C 251.00458,159.77646 254.64714,157.98418 259.73248,158.20544 C 265.22584,158.44446 267.60906,157.1704 269.1245,153.1845 C 269.81947,151.35658 269.53051,149.96891 267.90837,147.34422 C 265.96539,144.20043 265.78196,142.49501 265.7955,127.70072 C 265.80366,118.79027 265.85404,110.9741 265.90746,110.33146 C 266.06515,108.4344 272.48453,104.9999 275.87261,104.9999 C 277.65771,104.9999 279.85365,105.84897 280.97898,106.9743 C 282.6909,108.68622 282.91645,110.09602 282.6756,117.57902 C 282.41223,125.76149 282.53817,126.3596 285.10241,129.10462 L 287.807,131.9999 L 341.20579,131.9999 C 381.40485,131.9999 394.90121,132.29653 395.80458,133.1999 C 396.70467,134.09999 397.01014,146.65856 397.02682,183.4499 C 397.04766,229.43871 397.16333,232.64852 398.88016,234.88121 L 400.71127,237.26252 L 472.04947,237.27731 L 543.38767,237.29211 L 545.57117,239.47555 C 547.38707,241.29148 547.75987,242.82383 547.78597,248.57945 C 547.80557,252.9126 547.28287,256.34109 546.38787,257.7499 L 544.95847,259.9999 L 513.23157,260.02214 C 483.88907,260.0427 481.32327,260.18374 479.09247,261.89869 L 476.68047,263.75301 L 476.70147,286.51752 C 476.72067,307.38913 476.56787,309.43662 474.86347,311.14097 C 472.16777,313.83674 466.44087,313.61789 464.62987,310.7499 z M 496.36967,255.92732 C 499.30667,253.61708 499.75287,250.37152 497.53637,247.44103 C 496.72887,246.37341 496.05387,244.69828 496.03637,243.71852 C 495.99437,241.36487 493.97407,240.69149 490.02487,241.71482 C 487.46077,242.37927 486.51977,243.36318 485.42477,246.52502 C 483.69797,251.51141 484.34527,253.62701 488.34387,256.06516 C 492.32417,258.49215 493.12657,258.47836 496.36967,255.92732 z M 488.93497,252.41608 C 487.26407,250.40267 488.80917,247.63375 491.85667,247.18035 C 494.33217,246.81206 494.77257,248.49123 492.43567,249.38799 C 491.39287,249.78813 491.08007,250.66247 491.50297,251.99497 C 492.26327,254.39048 490.77607,254.63437 488.93497,252.41608 z M 409.07957,254.7249 C 408.95587,253.5292 407.58427,253.76076 407.15457,255.0499 C 406.93457,255.7099 407.29457,256.0699 407.95457,255.8499 C 408.61457,255.6299 409.12087,255.12365 409.07957,254.7249 z M 464.50457,244.48851 C 464.50457,242.42706 460.04527,240.73869 457.97687,242.01702 C 456.14027,243.15211 457.50367,245.77365 460.19347,246.27892 C 463.59927,246.91871 464.50457,246.54273 464.50457,244.48851 z M 523.50457,245.9999 C 523.84447,245.4499 523.64607,244.9999 523.06357,244.9999 C 522.48117,244.9999 522.00457,245.4499 522.00457,245.9999 C 522.00457,246.5499 522.20297,246.9999 522.44557,246.9999 C 522.68807,246.9999 523.16467,246.5499 523.50457,245.9999 z M 215.55843,224.91277 C 215.92797,224.31484 215.80477,223.40009 215.28467,222.87999 C 214.02935,221.62467 211.00458,222.84509 211.00458,224.60689 C 211.00458,226.24832 214.5844,226.48878 215.55843,224.91277 z M 172.32891,220.5971 C 172.62498,219.82556 172.22312,218.36306 171.4359,217.3471 C 170.04768,215.55553 169.95941,215.55836 168.50458,217.44103 C 167.67958,218.50865 167.00458,219.97115 167.00458,220.69103 C 167.00458,222.45129 171.64883,222.36936 172.32891,220.5971 z M 145.50458,219.9999 C 146.58144,218.25751 144.98529,216.77102 143.42656,218.06465 C 142.65658,218.70367 142.2732,219.62553 142.57461,220.11321 C 143.30409,221.29353 144.73938,221.23802 145.50458,219.9999 z M 259.81708,219.0624 C 260.06708,218.3124 259.69208,217.9374 258.94208,218.1874 C 258.2202,218.42802 257.43271,219.21552 257.19208,219.9374 C 256.94208,220.6874 257.31708,221.0624 258.06708,220.8124 C 258.78896,220.57178 259.57645,219.78428 259.81708,219.0624 z M 244.8279,218.32182 C 244.45633,216.39331 239.00484,214.59964 237.64576,215.95872 C 235.78348,217.821 237.88667,219.9999 241.54652,219.9999 C 244.38251,219.9999 245.08228,219.64204 244.8279,218.32182 z M 154.00458,206.4999 C 154.00458,205.66657 153.11569,204.9999 152.00458,204.9999 C 150.89347,204.9999 150.00458,205.66657 150.00458,206.4999 C 150.00458,207.33323 150.89347,207.9999 152.00458,207.9999 C 153.11569,207.9999 154.00458,207.33323 154.00458,206.4999 z M 215.58355,197.87213 C 215.88483,197.38463 215.42209,196.71361 214.55523,196.38096 C 212.83092,195.71928 209.72932,197.7455 210.51659,199.01933 C 211.10251,199.96737 214.80697,199.12866 215.58355,197.87213 z M 235.50458,191.54498 C 235.50458,190.2937 234.60475,189.36427 233.00458,188.96271 C 229.68028,188.12851 228.00458,188.81918 228.00458,191.02356 C 228.00458,193.1444 229.53329,193.96048 233.00458,193.69273 C 234.75293,193.55788 235.50458,192.91214 235.50458,191.54498 z M 135.03638,184.14291 C 135.05388,183.23926 135.72888,181.62639 136.53638,180.55877 C 138.88048,177.45959 138.3821,173.29337 135.43637,171.36325 C 129.77504,167.65381 120.97795,173.50779 123.70284,179.17127 C 124.31905,180.45202 125.07491,182.2874 125.38252,183.2499 C 125.71617,184.29387 126.93927,184.9999 128.41418,184.9999 C 129.77398,184.9999 131.15251,185.43025 131.47759,185.95623 C 132.35797,187.38071 134.99977,186.03463 135.03638,184.14291 z M 128.52606,179.37852 C 126.48386,177.33632 126.94234,174.63557 129.41197,174.15996 C 130.78548,173.89545 131.13254,174.22407 130.69202,175.37203 C 130.34249,176.2829 130.76183,177.3243 131.68651,177.84178 C 132.56589,178.3339 132.97064,179.2458 132.58596,179.86822 C 131.6214,181.42891 130.43312,181.28558 128.52606,179.37852 z M 356.50458,148.9999 C 356.8445,148.4499 356.42106,147.9999 355.5636,147.9999 C 354.70614,147.9999 354.00458,148.4499 354.00458,148.9999 C 354.00458,149.5499 354.42802,149.9999 354.94556,149.9999 C 355.4631,149.9999 356.16466,149.5499 356.50458,148.9999 z M 637.92447,235.1361 C 635.79737,233.41366 635.72397,232.69132 635.56787,211.92911 C 635.47937,200.14305 635.78307,189.41412 636.24287,188.08706 C 636.70267,186.76 636.70207,185.29738 636.24147,184.83679 C 635.78087,184.37621 632.27667,183.95032 628.45427,183.89037 C 622.35027,183.79465 621.28467,183.48882 619.69777,181.37718 C 618.45787,179.72738 617.98717,177.64595 618.19777,174.74391 C 618.76487,166.9274 607.16267,167.4999 765.00457,167.4999 C 888.46757,167.4999 905.86837,167.68344 908.50457,169.01353 L 911.50457,170.52715 L 911.66027,201.98542 C 911.83997,238.28684 912.47987,236.07833 901.62817,236.60825 C 896.50497,236.85843 895.16557,236.56033 893.22607,234.73825 C 891.01237,232.65858 890.92237,231.98086 891.00907,218.03526 C 891.05877,210.04081 891.07807,202.90903 891.05197,202.18685 C 891.01467,201.15191 887.70437,200.91705 875.42357,201.07802 C 860.85847,201.26893 859.70767,201.14741 857.77477,199.21451 C 856.07447,197.51424 855.72687,195.97858 855.81897,190.57334 C 855.88067,186.95795 855.61007,183.96482 855.21777,183.92195 C 854.82557,183.87908 809.95457,183.79427 755.50457,183.73347 L 656.50457,183.62294 L 656.48977,208.2905 C 656.47747,228.8005 656.22467,233.19357 654.98977,234.35536 C 654.17287,235.12388 650.49307,236.01394 646.81227,236.33327 C 641.30497,236.81106 639.73117,236.59906 637.92447,235.1361 z M 868.51007,194.99095 C 869.60247,193.22349 867.94067,189.9999 865.93717,189.9999 C 864.87427,189.9999 863.99847,190.3374 863.99097,190.7499 C 863.98337,191.1624 863.70597,192.5124 863.37427,193.7499 C 862.86407,195.65392 863.16457,195.9999 865.32897,195.9999 C 866.73557,195.9999 868.16717,195.54587 868.51007,194.99095 z M 902.55237,193.35388 C 905.35067,190.3344 905.67837,187.80397 903.50457,185.9999 C 902.67957,185.31521 902.00457,183.96521 902.00457,182.9999 C 902.00457,180.32872 899.89767,179.22888 895.77197,179.74642 C 892.47427,180.16009 891.92137,180.63914 891.02747,183.85728 C 889.57607,189.08293 889.76217,191.47877 891.75457,193.21442 C 895.76157,196.70507 899.40297,196.7521 902.55237,193.35388 z M 893.67127,191.33323 C 891.56847,189.23048 894.41917,184.9999 897.93887,184.9999 C 899.55147,184.9999 899.21487,187.70521 897.52147,188.35506 C 896.67747,188.6789 896.29267,189.58698 896.62847,190.46205 C 897.22277,192.01087 895.00287,192.66485 893.67127,191.33323 z M 682.77537,175.1874 C 682.99307,174.53428 682.45877,173.9999 681.58787,173.9999 C 680.71707,173.9999 680.00457,174.7124 680.00457,175.58323 C 680.00457,177.34916 682.15737,177.04162 682.77537,175.1874 z M 761.77537,175.1874 C 761.99307,174.53428 761.45877,173.9999 760.58787,173.9999 C 759.71707,173.9999 759.00457,174.7124 759.00457,175.58323 C 759.00457,177.34916 761.15737,177.04162 761.77537,175.1874 z M 365.95153,934.56378 C 367.23736,933.01448 365.8257,928.99988 363.99508,928.99988 C 362.76464,928.99988 359.89911,934.56108 360.71113,935.37308 C 361.8252,936.48718 364.72722,936.03898 365.95153,934.56378 z M 375.67271,854.42238 C 376.00566,853.55468 375.52006,852.09218 374.59361,851.17238 C 373.01822,849.60818 372.78419,849.66178 370.9791,851.99988 C 368.35077,855.40438 368.50811,855.99988 372.03596,855.99988 C 373.87426,855.99988 375.30561,855.37898 375.67271,854.42238 z M 429.38737,843.93798 C 429.87287,843.49598 429.99527,842.41808 429.65927,841.54258 C 429.21057,840.37318 428.31297,840.12418 426.27657,840.60448 C 422.66337,841.45648 421.59907,842.50078 422.34987,844.45728 C 422.79857,845.62668 423.69617,845.87558 425.73257,845.39538 C 427.25717,845.03588 428.90187,844.38008 429.38737,843.93798 z M 401.32887,810.59708 C 401.62497,809.82558 401.22877,808.36308 400.44837,807.34708 C 399.08854,805.57668 398.9469,805.60378 397.03932,807.99988 C 395.94467,809.37488 395.03905,810.83738 395.02682,811.24988 C 394.9861,812.62328 400.78177,812.02288 401.32887,810.59708 z M 420.66877,809.43268 C 421.46847,807.34858 420.15007,806.20408 416.50457,805.81778 C 414.08587,805.56148 413.50457,805.87868 413.50457,807.45478 C 413.50457,808.68798 414.42757,809.66648 416.00457,810.10518 C 419.78407,811.15648 420.02037,811.12238 420.66877,809.43268 z M 570.29807,794.37308 C 571.11007,793.56108 568.24447,787.99988 567.01407,787.99988 C 565.18347,787.99988 563.77177,792.01448 565.05767,793.56378 C 566.28197,795.03898 569.18397,795.48718 570.29807,794.37308 z M 614.48707,768.02818 C 615.27727,766.74968 612.02637,761.82598 610.68677,762.27248 C 610.11517,762.46308 609.16527,763.40598 608.57597,764.36798 C 607.73457,765.74158 607.92127,766.42648 609.44567,767.55848 C 611.69787,769.23088 613.63237,769.41108 614.48707,768.02818 z M 980.09977,766.71478 C 983.83047,764.20058 984.72997,761.84708 983.19387,758.61848 C 982.63947,757.45328 981.95927,755.77768 981.68227,754.89488 C 981.39107,753.96698 979.59947,753.03358 977.43537,752.68238 C 973.11607,751.98148 972.00457,752.42878 972.00457,754.86778 C 972.00457,755.83018 971.34387,757.49118 970.53637,758.55878 C 968.26707,761.55908 968.71437,764.61658 971.75457,766.88478 C 975.26177,769.50148 975.98647,769.48668 980.09977,766.71478 z M 976.88927,764.37238 C 976.62827,762.39838 976.34997,761.41148 975.57387,759.70678 C 974.50557,757.36028 975.65597,756.29208 977.80257,757.63738 C 980.07687,759.06288 980.46927,762.36938 978.55287,763.95988 C 977.70127,764.66658 976.95267,764.85218 976.88927,764.37238 z M 408.91537,763.68418 C 411.53127,758.28048 411.55407,755.54938 409.00457,752.99988 C 403.87827,747.87358 393.76617,754.10558 396.89732,760.46158 C 397.44961,761.58268 398.04229,763.39988 398.21439,764.49988 C 398.43418,765.90478 399.56541,766.68388 402.01597,767.11828 C 403.93467,767.45838 405.80197,767.79588 406.16537,767.86828 C 406.52877,767.94068 407.76627,766.05778 408.91537,763.68418 z M 401.04447,760.54798 C 399.3854,758.54888 400.13422,755.59858 402.41197,755.15998 C 403.83437,754.88608 404.13697,755.21238 403.64637,756.49098 C 403.19277,757.67298 403.60837,758.34508 405.02157,758.71458 C 406.61297,759.13078 406.80177,759.53928 405.90317,760.62208 C 404.42537,762.40268 402.56017,762.37428 401.04447,760.54798 z M 171.77541,765.18738 C 171.99312,764.53428 171.45875,763.99988 170.58791,763.99988 C 169.71708,763.99988 169.00458,764.71238 169.00458,765.58328 C 169.00458,767.34918 171.15734,767.04158 171.77541,765.18738 z M 347.75444,764.41648 C 346.80149,763.46348 344.89095,765.00708 345.60114,766.15618 C 346.02326,766.83918 346.5826,766.82188 347.30078,766.10368 C 347.88954,765.51498 348.09369,764.75568 347.75444,764.41648 z M 832.50457,765.99988 C 833.58147,764.25748 831.98527,762.77098 830.42657,764.06468 C 829.65657,764.70368 829.27317,765.62558 829.57457,766.11318 C 830.30407,767.29358 831.73937,767.23798 832.50457,765.99988 z M 341.82637,764.31308 C 341.43045,762.25718 335.20363,760.40088 333.71083,761.89368 C 332.00159,763.60288 334.91421,765.99988 338.70035,765.99988 C 341.39939,765.99988 342.08045,765.63238 341.82637,764.31308 z M 561.48707,759.02818 C 562.16117,757.93758 559.24317,752.99988 557.92477,752.99988 C 556.16467,752.99988 554.80437,757.05368 556.05767,758.56378 C 557.41797,760.20298 560.59317,760.47458 561.48707,759.02818 z M 171.77541,756.18738 C 171.99312,755.53428 171.45875,754.99988 170.58791,754.99988 C 169.71708,754.99988 169.00458,755.71238 169.00458,756.58328 C 169.00458,758.34918 171.15734,758.04158 171.77541,756.18738 z M 374.00458,756.49988 C 374.00458,755.67488 373.55458,754.99988 373.00458,754.99988 C 372.45458,754.99988 372.00458,755.67488 372.00458,756.49988 C 372.00458,757.32488 372.45458,757.99988 373.00458,757.99988 C 373.55458,757.99988 374.00458,757.32488 374.00458,756.49988 z M 920.00457,756.49988 C 920.00457,755.67488 919.55457,754.99988 919.00457,754.99988 C 918.45457,754.99988 918.00457,755.67488 918.00457,756.49988 C 918.00457,757.32488 918.45457,757.99988 919.00457,757.99988 C 919.55457,757.99988 920.00457,757.32488 920.00457,756.49988 z M 22.004575,747.99988 C 22.004575,747.44988 21.329575,746.99988 20.504575,746.99988 C 19.679575,746.99988 19.004575,747.44988 19.004575,747.99988 C 19.004575,748.54988 19.679575,748.99988 20.504575,748.99988 C 21.329575,748.99988 22.004575,748.54988 22.004575,747.99988 z M 383.00458,747.41658 C 383.00458,746.54578 382.4702,746.01138 381.81708,746.22908 C 379.96286,746.84718 379.65532,748.99988 381.42125,748.99988 C 382.29208,748.99988 383.00458,748.28738 383.00458,747.41658 z M 647.00457,747.49988 C 647.00457,746.67488 646.55457,745.99988 646.00457,745.99988 C 645.45457,745.99988 645.00457,746.67488 645.00457,747.49988 C 645.00457,748.32488 645.45457,748.99988 646.00457,748.99988 C 646.55457,748.99988 647.00457,748.32488 647.00457,747.49988 z M 711.80217,746.18728 C 711.44867,744.35168 705.16147,742.44298 703.83567,743.76878 C 702.30757,745.29698 704.04067,747.86648 706.83917,748.22188 C 710.53107,748.69078 712.15597,748.02468 711.80217,746.18728 z M 946.50457,747.99988 C 946.84447,747.44988 946.42107,746.99988 945.56357,746.99988 C 944.70617,746.99988 944.00457,747.44988 944.00457,747.99988 C 944.00457,748.54988 944.42797,748.99988 944.94557,748.99988 C 945.46307,748.99988 946.16467,748.54988 946.50457,747.99988 z M 375.80458,740.79988 C 377.51722,739.08728 377.3034,738.23018 374.83375,736.90848 C 373.0348,735.94568 372.43521,736.05808 371.33375,737.56438 C 370.6027,738.56418 370.00458,739.97118 370.00458,740.69108 C 370.00458,742.33158 374.19423,742.41028 375.80458,740.79988 z M 682.77537,739.18738 C 682.99307,738.53428 682.45877,737.99988 681.58787,737.99988 C 680.71707,737.99988 680.00457,738.71238 680.00457,739.58328 C 680.00457,741.34918 682.15737,741.04158 682.77537,739.18738 z M 13.004575,738.41658 C 13.004575,736.65068 10.851815,736.95818 10.233735,738.81238 C 10.016025,739.46558 10.550405,739.99988 11.421235,739.99988 C 12.292075,739.99988 13.004575,739.28738 13.004575,738.41658 z M 762.00457,738.99988 C 762.00457,738.44988 761.32957,737.99988 760.50457,737.99988 C 759.67957,737.99988 759.00457,738.44988 759.00457,738.99988 C 759.00457,739.54988 759.67957,739.99988 760.50457,739.99988 C 761.32957,739.99988 762.00457,739.54988 762.00457,738.99988 z M 427.00457,737.46848 C 427.00457,735.87188 424.34697,734.32418 423.33787,735.33328 C 423.01867,735.65248 423.02397,736.60808 423.34967,737.45678 C 424.11657,739.45528 427.00457,739.46458 427.00457,737.46848 z M 770.78687,730.15438 C 771.07347,729.29378 770.59267,728.93338 769.45257,729.15438 C 768.47237,729.34438 767.46867,730.10538 767.22227,730.84538 C 766.93567,731.70608 767.41657,732.06638 768.55657,731.84538 C 769.53677,731.65538 770.54047,730.89438 770.78687,730.15438 z M 878.50457,729.07188 C 878.50457,727.36958 872.94707,725.65738 871.64577,726.95868 C 871.14707,727.45748 871.02067,728.59948 871.36487,729.49658 C 872.16687,731.58648 878.50457,731.20948 878.50457,729.07188 z M 463.00457,720.62238 C 463.00457,718.58318 460.27137,716.68358 458.38117,717.40888 C 456.87127,717.98828 456.88327,718.20838 458.52347,720.02078 C 460.59207,722.30658 463.00457,722.63048 463.00457,720.62238 z M 605.82787,720.32178 C 605.45637,718.39328 600.00487,716.59968 598.64577,717.95868 C 596.78347,719.82098 598.88667,721.99988 602.54647,721.99988 C 605.38247,721.99988 606.08227,721.64208 605.82787,720.32178 z M 603.00457,703.49988 C 603.00457,702.67488 602.55457,701.99988 602.00457,701.99988 C 601.45457,701.99988 601.00457,702.67488 601.00457,703.49988 C 601.00457,704.32488 601.45457,704.99988 602.00457,704.99988 C 602.55457,704.99988 603.00457,704.32488 603.00457,703.49988 z M 632.33617,703.06828 C 633.89397,701.51048 632.00767,699.99988 628.50457,699.99988 C 624.82747,699.99988 623.48667,701.20788 624.43137,703.66968 C 624.88507,704.85208 625.83237,705.08438 628.23877,704.60308 C 630.00057,704.25068 631.84447,703.56008 632.33617,703.06828 z M 541.50457,694.99988 C 541.84447,694.44988 541.42107,693.99988 540.56357,693.99988 C 539.70617,693.99988 539.00457,694.44988 539.00457,694.99988 C 539.00457,695.54988 539.42797,695.99988 539.94557,695.99988 C 540.46307,695.99988 541.16467,695.54988 541.50457,694.99988 z M 567.55847,691.91278 C 567.92797,691.31488 567.80477,690.40008 567.28467,689.87998 C 566.02937,688.62468 563.00457,689.84508 563.00457,691.60688 C 563.00457,693.24828 566.58437,693.48878 567.55847,691.91278 z M 604.67267,687.42238 C 605.00567,686.55468 604.52007,685.09218 603.59357,684.17238 C 602.01827,682.60818 601.78777,682.65998 600.03507,684.97198 C 599.00437,686.33158 598.37737,687.79408 598.64177,688.22198 C 599.51407,689.63328 604.05537,689.03118 604.67267,687.42238 z M 999.78688,686.15438 C 1000.0735,685.29378 999.59268,684.93338 998.45258,685.15438 C 997.47238,685.34438 996.46868,686.10538 996.22228,686.84538 C 995.93568,687.70608 996.41658,688.06638 997.55658,687.84538 C 998.53678,687.65538 999.54048,686.89438 999.78688,686.15438 z M 24.504575,676.06348 C 24.504575,674.24148 18.136055,672.46838 16.710825,673.89368 C 16.015505,674.58898 16.111605,675.42398 17.011775,676.50858 C 18.661325,678.49618 24.504575,678.14908 24.504575,676.06348 z M 623.50457,667.06348 C 623.50457,665.26398 617.13877,663.46568 615.73567,664.86878 C 615.18747,665.41698 615.02017,666.59808 615.36377,667.49358 C 616.18027,669.62138 623.50457,669.23448 623.50457,667.06348 z M 993.50458,649.49988 C 993.50458,647.84038 992.83788,647.49988 989.58788,647.49988 C 985.08797,647.49988 983.67137,649.52578 987.17087,650.95658 C 990.76328,652.42548 993.50458,651.79498 993.50458,649.49988 z M 21.754435,623.41648 C 20.801475,622.46348 18.890945,624.00708 19.601125,625.15618 C 20.023245,625.83918 20.582595,625.82188 21.300775,625.10368 C 21.889525,624.51498 22.093675,623.75568 21.754435,623.41648 z M 999.50458,562.99988 C 999.84448,562.44988 999.42108,561.99988 998.56358,561.99988 C 997.70618,561.99988 997.00458,562.44988 997.00458,562.99988 C 997.00458,563.54988 997.42798,563.99988 997.94558,563.99988 C 998.46308,563.99988 999.16468,563.54988 999.50458,562.99988 z M 109.81602,545.96098 C 112.36908,543.58238 112.54286,541.81358 110.58302,538.15418 C 109.80116,536.69438 108.91528,534.71238 108.6144,533.74988 C 108.21254,532.46438 107.00095,531.99988 104.04938,531.99988 C 100.37684,531.99988 99.901308,532.31128 98.517995,535.62198 C 96.531975,540.37528 96.605145,543.34198 98.754575,545.21438 C 102.52288,548.49718 106.78497,548.78478 109.81602,545.96098 z M 101.20458,543.79988 C 100.54458,543.13988 100.00458,542.08468 100.00458,541.45488 C 100.00458,539.57518 103.81219,536.71208 105.46733,537.34728 C 107.49402,538.12498 107.44372,539.99988 105.39617,539.99988 C 104.17988,539.99988 103.94073,540.60938 104.41522,542.49988 C 105.10112,545.23278 103.34748,545.94278 101.20458,543.79988 z M 58.004575,535.53508 C 58.004575,533.43878 54.102085,531.50238 52.700955,532.90348 C 51.915765,533.68868 52.154895,534.40298 53.558315,535.46438 C 56.067755,537.36228 58.004575,537.39308 58.004575,535.53508 z M 57.004575,509.41658 C 57.004575,507.65068 54.851815,507.95818 54.233735,509.81238 C 54.016025,510.46548 54.550405,510.99988 55.421235,510.99988 C 56.292075,510.99988 57.004575,510.28738 57.004575,509.41658 z M 930.04627,502.44971 C 931.11037,501.16747 931.03687,500.60571 929.62097,499.19971 C 928.00907,497.59913 927.79977,497.64421 926.03507,499.97194 C 925.00437,501.33156 924.37737,502.79406 924.64177,503.22194 C 925.45847,504.54338 928.69207,504.08133 930.04627,502.44971 z M 975.50457,500.07185 C 975.50457,498.36961 969.94707,496.6574 968.64577,497.95872 C 968.14707,498.45743 968.02067,499.59946 968.36487,500.49655 C 969.16687,502.58648 975.50457,502.20948 975.50457,500.07185 z M 938.00457,474.9999 C 938.00457,474.4499 937.32957,473.9999 936.50457,473.9999 C 935.67957,473.9999 935.00457,474.4499 935.00457,474.9999 C 935.00457,475.5499 935.67957,475.9999 936.50457,475.9999 C 937.32957,475.9999 938.00457,475.5499 938.00457,474.9999 z M 868.67267,458.42236 C 869.00567,457.55471 868.52007,456.09221 867.59357,455.17236 C 866.01827,453.6082 865.78777,453.65998 864.03507,455.97194 C 863.00437,457.33156 862.37737,458.79406 862.64177,459.22194 C 863.51407,460.63324 868.05537,460.03114 868.67267,458.42236 z M 947.67267,458.42236 C 948.00567,457.55471 947.56237,456.12912 946.68767,455.25438 C 945.23367,453.80047 944.92947,453.87108 943.14327,456.07693 C 942.06867,457.40406 941.39937,458.82965 941.65597,459.2449 C 942.51717,460.63834 947.06067,460.01719 947.67267,458.42236 z M 893.55847,453.91277 C 893.92797,453.31484 893.80477,452.40009 893.28467,451.87999 C 892.02937,450.62467 889.00457,451.84509 889.00457,453.60689 C 889.00457,455.24832 892.58437,455.48878 893.55847,453.91277 z M 878.66877,448.43268 C 879.46847,446.34858 878.15007,445.20406 874.50457,444.81778 C 872.08587,444.5615 871.50457,444.87871 871.50457,446.45482 C 871.50457,447.68795 872.42757,448.66648 874.00457,449.10514 C 877.78407,450.15645 878.02037,450.12239 878.66877,448.43268 z M 911.77537,439.1874 C 911.99307,438.53428 911.45877,437.9999 910.58787,437.9999 C 909.71707,437.9999 909.00457,438.7124 909.00457,439.58323 C 909.00457,441.34916 911.15737,441.04162 911.77537,439.1874 z M 964.50897,435.99284 C 965.61547,434.20242 961.91577,433.66016 960.21277,435.36316 C 958.69707,436.87881 958.77247,436.9999 961.23127,436.9999 C 962.69167,436.9999 964.16667,436.54672 964.50897,435.99284 z M 145.56389,403.90394 C 146.56974,402.27643 143.45428,399.61336 141.446,400.384 C 139.83972,401.00039 139.84457,401.16561 141.52345,403.02075 C 143.55225,405.26255 144.58474,405.48824 145.56389,403.90394 z M 101.50458,400.4999 C 101.50458,399.9499 100.49208,399.3561 99.254575,399.18035 C 97.706405,398.96047 97.004575,399.37208 97.004575,400.4999 C 97.004575,401.62772 97.706405,402.03933 99.254575,401.81945 C 100.49208,401.6437 101.50458,401.0499 101.50458,400.4999 z M 49.184795,396.62672 C 49.955525,395.47207 48.379295,391.9999 47.084395,391.9999 C 46.617005,391.9999 45.460375,393.18151 44.514105,394.62569 C 43.169775,396.67741 43.070145,397.42239 44.058415,398.03317 C 45.476005,398.9093 48.151065,398.17538 49.184795,396.62672 z M 209.80214,394.18724 C 209.4259,392.23359 203.1499,390.45458 201.71083,391.89365 C 199.55905,394.04543 205.08067,397.3734 208.80367,396.16863 C 209.51817,395.93742 209.96748,395.04579 209.80214,394.18724 z M 233.00458,386.4999 C 233.00458,385.6749 232.55458,384.9999 232.00458,384.9999 C 231.45458,384.9999 231.00458,385.6749 231.00458,386.4999 C 231.00458,387.3249 231.45458,387.9999 232.00458,387.9999 C 232.55458,387.9999 233.00458,387.3249 233.00458,386.4999 z M 990.77538,351.1874 C 990.99308,350.53428 990.45878,349.9999 989.58788,349.9999 C 988.71707,349.9999 988.00457,350.7124 988.00457,351.58323 C 988.00457,353.34916 990.15738,353.04162 990.77538,351.1874 z M 993.80218,218.18724 C 993.43038,216.25672 987.15217,214.45228 985.73567,215.86882 C 984.10077,217.50371 985.68807,219.83077 988.69547,220.20803 C 992.52988,220.68902 994.15978,220.04405 993.80218,218.18724 z M 497.77537,78.187402 C 497.99307,77.534282 497.45877,76.999902 496.58787,76.999902 C 495.71707,76.999902 495.00457,77.712402 495.00457,78.583232 C 495.00457,80.349162 497.15737,80.041622 497.77537,78.187402 z M 500.50457,68.509722 C 500.50457,67.092422 499.64107,66.354592 497.50457,65.946512 C 495.85457,65.631342 493.94207,65.562572 493.25457,65.793682 C 491.22527,66.475862 491.82487,68.990612 494.25457,69.987582 C 497.75957,71.425762 500.50457,70.776672 500.50457,68.509722 z M 156.79842,59.167922 C 156.47966,57.512722 152.40006,56.020682 150.25458,56.774622 C 147.79424,57.639202 148.87962,60.851302 151.75458,61.213732 C 155.54102,61.691072 157.15803,61.035202 156.79842,59.167922 z M 154.00458,34.999902 C 154.00458,33.899902 153.60272,32.999902 153.11157,32.999902 C 151.98753,32.999902 150.93903,35.601022 151.74015,36.402142 C 152.94391,37.605902 154.00458,36.949092 154.00458,34.999902 z"
     id="path2384"
     inkscape:export-filename="/home/duncan/programming/coffeeworlds/data/map4back.png"
     inkscape:export-xdpi="90"
     inkscape:export-ydpi="90" />
</svg>
